<svg xmlns="http://www.w3.org/2000/svg" xmlns:xlink="http://www.w3.org/1999/xlink" viewBox="0 0 756.28 480.21" xmlns:v="https://vecta.io/nano"><style><![CDATA[.B{mix-blend-mode:darken}.A{isolation:isolate}.E{opacity:.6}.F{fill:#892b0e}.G{opacity:.7}]]></style><g class="A F"><circle class="B E" cx="327.18" cy="285.86" r=".56"/><circle class="B E" cx="275.35" cy="301.08" r=".25"/><path class="B E" d="M287.27 263.66l-.31-.31-.18.18.31.31-.31.31.18.18.31-.31.32.31.18-.18-.31-.31.31-.31-.18-.18-.32.31z"/><g class="E"><circle class="B E" cx="305.57" cy="479.17" r=".56"/><circle class="B E" cx="290.35" cy="427.34" r=".25"/><path class="B E" d="M327.77 439.27l.31-.31-.19-.18-.3.31-.32-.31-.18.18.32.31-.32.31.18.18.32-.31.3.31.19-.18-.31-.31z"/></g><circle class="B E" cx="273.52" cy="359.65" r=".56"/><circle class="B E" cx="221.69" cy="374.87" r=".25"/><path class="B E" d="M233.61 337.45l-.31-.31-.18.18.31.31-.31.31.18.18.31-.31.32.31.18-.18-.31-.31.31-.31-.18-.18-.32.31z"/><circle class="B E" cx="54.88" cy="382.02" r=".56"/><circle class="B E" cx="3.05" cy="397.24" r=".25"/><path class="B E" d="M14.98 359.82l-.31-.32-.18.19.31.31-.31.31.18.18.31-.31.31.31.18-.18-.31-.31.31-.31-.18-.19-.31.32z"/><g class="G"><circle class="B E" cx="184.64" cy="361.62" r=".56"/><circle class="B E" cx="169.42" cy="309.79" r=".25"/><path class="B E" d="M206.84 321.71l.31-.3-.19-.19-.3.31-.32-.31-.18.19.32.3-.32.32.18.18.32-.31.3.31.19-.18-.31-.32z"/></g><circle class="B E" cx="171.57" cy="418.79" r=".56"/><circle class="B E" cx="117.61" cy="421.19" r=".25"/><path class="B E" d="M138.12 387.7l-.22-.37-.22.13.23.38-.38.23.13.22.38-.23.23.37.22-.13-.23-.38.37-.22-.13-.22-.38.22z"/><circle class="B E" cx="121.32" cy="451.11" r=".73"/><circle class="B E" cx="188.31" cy="431.44" r=".33"/><path class="B E" d="M172.9 479.81l.4.4.23-.24-.4-.4.4-.4-.23-.24-.4.41-.41-.41-.23.24.4.4-.4.4.23.24.41-.4z"/><circle class="B E" cx="410.26" cy="452.27" r=".73"/><circle class="B E" cx="427.18" cy="384.53" r=".33"/><path class="B E" d="M461.1 422.29l.55-.14-.08-.32-.55.14-.15-.55-.32.09.15.55-.55.14.08.32.55-.14.14.55.33-.08-.15-.56z"/><g class="G"><circle class="B E" cx="224.68" cy="461.29" r=".45"/><circle class="B E" cx="266.21" cy="449.1" r=".2"/><path class="B E" d="M256.66 479.08l.25.25.14-.15-.25-.24.25-.25-.14-.15-.25.25-.25-.25-.15.15.25.25-.25.24.15.15.25-.25z"/></g><g class="G"><circle class="B E" cx="54.99" cy="294.74" r=".45"/><circle class="B E" cx="96.52" cy="282.55" r=".2"/><path class="B E" d="M86.96 312.53l.25.25.14-.15-.24-.24.24-.25-.14-.15-.25.25-.25-.25-.14.15.24.25-.24.24.14.15.25-.25z"/></g><g class="G"><circle class="B E" cx="20.59" cy="450.28" r=".45"/><circle class="B E" cx="62.12" cy="438.08" r=".2"/><path class="B E" d="M52.56 468.07l.25.25.15-.15-.25-.25.25-.25-.15-.14-.25.25-.25-.25-.14.14.25.25-.25.25.14.15.25-.25z"/></g><g class="G"><circle class="B E" cx="392.96" cy="380.76" r=".45"/><circle class="B E" cx="434.49" cy="368.56" r=".2"/><path class="B E" d="M424.94 398.55l.24.25.15-.15-.25-.25.25-.25-.15-.14-.24.25-.25-.25-.15.14.25.25-.25.25.15.15.25-.25z"/></g><circle class="B E" cx="621.02" cy="61.16" r=".56"/><circle class="B E" cx="569.19" cy="76.38" r=".25"/><path class="B E" d="M581.11 38.96l-.31-.32-.18.19.31.31-.31.31.18.18.31-.31.32.31.18-.18-.31-.31.31-.31-.18-.19-.32.32z"/><g class="E"><circle class="B E" cx="599.41" cy="254.47" r=".56"/><circle class="B E" cx="584.19" cy="202.64" r=".25"/><path class="B E" d="M621.61 214.56l.31-.3-.18-.18-.31.3-.32-.3-.18.18.32.3-.32.32.18.18.32-.31.31.31.18-.18-.31-.32z"/></g><circle class="B E" cx="567.36" cy="134.95" r=".56"/><circle class="B E" cx="515.53" cy="150.17" r=".25"/><path class="B E" d="M527.45 112.75l-.31-.32-.18.19.31.31-.31.31.18.18.31-.31.32.31.18-.18-.31-.31.31-.31-.18-.19-.32.32z"/><circle class="B E" cx="348.72" cy="157.32" r=".56"/><circle class="B E" cx="296.89" cy="172.53" r=".25"/><path class="B E" d="M308.82 135.11l-.31-.31-.18.19.31.31-.31.31.18.18.31-.31.31.31.18-.18-.31-.31.31-.31-.18-.19-.31.31z"/><g class="G"><circle class="B E" cx="478.48" cy="136.92" r=".56"/><circle class="B E" cx="463.26" cy="85.09" r=".25"/><path class="B E" d="M500.68 97.01l.31-.31-.18-.18-.31.31-.32-.31-.18.18.32.31-.32.32.18.18.32-.31.31.31.18-.18-.31-.32z"/></g><circle class="B E" cx="465.41" cy="194.09" r=".56"/><circle class="B E" cx="411.45" cy="196.49" r=".25"/><path class="B E" d="M431.97 163l-.23-.37-.22.13.23.38-.38.23.13.21.38-.23.23.38.22-.13-.23-.38.38-.22-.14-.23-.37.23z"/><circle class="B E" cx="415.16" cy="226.41" r=".73"/><circle class="B E" cx="482.15" cy="206.74" r=".33"/><path class="B E" d="M466.74 255.1l.4.41.23-.24-.4-.4.4-.4-.23-.24-.4.41-.41-.41-.23.24.4.4-.4.4.23.24.41-.41z"/><circle class="B E" cx="704.1" cy="227.57" r=".73"/><circle class="B E" cx="721.02" cy="159.83" r=".33"/><path class="B E" d="M754.94 197.59l.55-.14-.08-.32-.55.14-.15-.55-.32.09.15.55-.55.14.08.32.55-.14.14.55.33-.08-.15-.56z"/><g class="G"><circle class="B E" cx="518.53" cy="236.59" r=".45"/><circle class="B E" cx="560.06" cy="224.39" r=".2"/><path class="B E" d="M550.5 254.38l.25.25.14-.15-.24-.25.24-.25-.14-.14-.25.25-.25-.25-.15.14.25.25-.25.25.15.15.25-.25z"/></g><g class="G"><circle class="B E" cx="348.83" cy="70.04" r=".45"/><circle class="B E" cx="390.36" cy="57.84" r=".2"/><path class="B E" d="M380.8 87.83l.25.25.15-.15-.25-.25.25-.25-.15-.14-.25.25-.25-.25-.14.14.24.25-.24.25.14.15.25-.25z"/></g><g class="G"><circle class="B E" cx="314.43" cy="225.57" r=".45"/><circle class="B E" cx="355.96" cy="213.38" r=".2"/><path class="B E" d="M346.41 243.36l.24.25.15-.14-.25-.25.25-.25-.15-.15-.24.25-.26-.25-.14.15.25.25-.25.25.14.14.26-.25z"/></g><g class="G"><circle class="B E" cx="686.8" cy="156.06" r=".45"/><circle class="B E" cx="728.33" cy="143.86" r=".2"/><path class="B E" d="M718.78 173.85l.25.25.14-.15-.25-.25.25-.25-.14-.14-.25.25-.25-.25-.15.14.25.25-.25.25.15.15.25-.25z"/></g><circle class="B E" cx="755.37" cy="282.52" r=".56"/><circle class="B E" cx="703.54" cy="297.74" r=".25"/><use xlink:href="#B" class="B E"/><g class="E"><circle class="B E" cx="733.76" cy="475.83" r=".56"/><circle class="B E" cx="718.54" cy="424" r=".25"/><use xlink:href="#C" class="B E"/></g><circle class="B E" cx="701.71" cy="356.31" r=".56"/><circle class="B E" cx="649.88" cy="371.53" r=".25"/><use xlink:href="#B" x="-53.66" y="73.79" class="B E"/><circle class="B E" cx="483.08" cy="378.68" r=".56"/><circle class="B E" cx="431.25" cy="393.9" r=".25"/><path class="B E" d="M443.17 356.48l-.3-.32-.19.19.31.31-.31.31.19.18.3-.31.32.31.18-.18-.31-.31.31-.31-.18-.19-.32.32z"/><g class="G"><circle class="B E" cx="612.83" cy="358.28" r=".56"/><circle class="B E" cx="597.61" cy="306.45" r=".25"/><path class="B E" d="M635.03 318.37l.32-.3-.19-.19-.31.31-.31-.31-.18.19.31.3-.31.32.18.18.31-.31.31.31.19-.18-.32-.32z"/></g><circle class="B E" cx="599.77" cy="415.45" r=".56"/><circle class="B E" cx="545.81" cy="417.85" r=".25"/><path class="B E" d="M566.32 384.36l-.22-.37-.22.13.22.38-.37.23.13.22.38-.23.22.37.22-.13-.22-.38.37-.22-.13-.22-.38.22z"/><circle class="B E" cx="549.52" cy="447.77" r=".73"/><circle class="B E" cx="616.51" cy="428.1" r=".33"/><path class="B E" d="M601.09 476.47l.4.4.24-.24-.4-.4.4-.4-.24-.24-.4.41-.4-.41-.23.24.39.4-.39.4.23.24.4-.4z"/><g class="G"><circle class="B E" cx="652.88" cy="457.95" r=".45"/><circle class="B E" cx="694.41" cy="445.76" r=".2"/><path class="B E" d="M684.86 475.74l.24.25.15-.15-.25-.24.25-.25-.15-.15-.24.25-.25-.25-.15.15.25.25-.25.24.15.15.25-.25z"/></g><g class="G"><circle class="B E" cx="483.18" cy="291.4" r=".45"/><circle class="B E" cx="524.71" cy="279.21" r=".2"/><path class="B E" d="M515.16 309.19l.25.25.14-.15-.25-.24.25-.26-.14-.14-.25.25-.25-.25-.15.14.25.26-.25.24.15.15.25-.25z"/></g><g class="G"><circle class="B E" cx="448.79" cy="446.94" r=".45"/><circle class="B E" cx="490.32" cy="434.74" r=".2"/><path class="B E" d="M480.76 464.73l.25.25.14-.15-.24-.25.24-.25-.14-.14-.25.25-.25-.25-.14.14.24.25-.24.25.14.15.25-.25z"/></g><circle class="B E" cx="209.82" cy=".56" r=".56"/><circle class="B E" cx="157.99" cy="15.78" r=".25"/><g class="E"><circle class="B E" cx="188.21" cy="193.87" r=".56"/><circle class="B E" cx="172.99" cy="142.04" r=".25"/><use xlink:href="#C" x="-545.55" y="-281.96" class="B E"/></g><circle class="B E" cx="156.16" cy="74.35" r=".56"/><circle class="B E" cx="104.33" cy="89.57" r=".25"/><use xlink:href="#B" x="-599.21" y="-208.17" class="B E"/><g class="G"><circle class="B E" cx="67.28" cy="76.32" r=".56"/><circle class="B E" cx="52.06" cy="24.49" r=".25"/><use xlink:href="#C" x="-666.48" y="-399.51" class="B E"/></g><circle class="B E" cx="54.22" cy="133.5" r=".56"/><circle class="B E" cx=".26" cy="135.9" r=".25"/><path class="B E" d="M20.77 102.41l-.22-.38-.22.14.22.37-.37.23.13.22.37-.23.23.38.22-.14-.22-.37.37-.23-.13-.22-.38.23z"/><circle class="B E" cx="3.97" cy="165.81" r=".73"/><circle class="B E" cx="70.96" cy="146.14" r=".33"/><path class="B E" d="M55.54 194.51l.4.4.24-.24-.4-.39.4-.41-.24-.23-.4.4-.4-.4-.24.23.4.41-.4.39.24.24.4-.4z"/><circle class="B E" cx="292.9" cy="166.97" r=".73"/><circle class="B E" cx="309.82" cy="99.23" r=".33"/><path class="B E" d="M343.75 137l.55-.14-.09-.33-.54.15-.15-.55-.32.08.15.55-.56.14.09.32.55-.14.14.55.32-.08-.14-.55z"/><g class="G"><circle class="B E" cx="107.33" cy="175.99" r=".45"/><circle class="B E" cx="148.86" cy="163.8" r=".2"/><path class="B E" d="M139.31 193.78l.24.25.15-.14-.25-.25.25-.25-.15-.15-.24.25-.26-.25-.14.15.25.25-.25.25.14.14.26-.25z"/></g><g class="G"><circle class="B E" cx="275.61" cy="95.46" r=".45"/><circle class="B E" cx="317.14" cy="83.27" r=".2"/><path class="B E" d="M307.58 113.25l.25.25.15-.15-.25-.24.25-.26-.15-.14-.25.25-.25-.25-.14.14.24.26-.24.24.14.15.25-.25z"/></g></g><defs ><path id="B" d="M715.47 260.32l-.31-.31-.18.18.31.31-.31.31.18.18.31-.31.31.31.18-.18-.31-.31.31-.31-.18-.18-.31.31z"/><path id="C" d="M755.96 435.93l.32-.31-.19-.18-.31.31-.31-.31-.18.18.31.31-.31.31.18.18.31-.31.31.31.19-.18-.32-.31z"/></defs></svg>