<?xml version="1.0" encoding="UTF-8"?>
<svg xmlns="http://www.w3.org/2000/svg" viewBox="0 0 756.28 480.21">
  <defs>
    <style>
      .cls-1 {
        fill: #892b0e;
        mix-blend-mode: darken;
      }

      .cls-1, .cls-2 {
        opacity: .6;
      }

      .cls-3 {
        opacity: .7;
      }

      .cls-4 {
        isolation: isolate;
      }
    </style>
  </defs>
  <g class="cls-4">
    <g id="Layer_2" data-name="Layer 2">
      <g id="Layer_1-2" data-name="Layer 1">
        <g>
          <g>
            <circle class="cls-1" cx="327.18" cy="194.35" r=".56"/>
            <circle class="cls-1" cx="275.35" cy="179.13" r=".25"/>
            <polygon class="cls-1" points="287.27 216.55 286.96 216.86 286.78 216.68 287.09 216.37 286.78 216.06 286.96 215.88 287.27 216.19 287.59 215.88 287.77 216.06 287.46 216.37 287.77 216.68 287.59 216.86 287.27 216.55"/>
          </g>
          <g class="cls-2">
            <circle class="cls-1" cx="305.57" cy="1.04" r=".56"/>
            <circle class="cls-1" cx="290.35" cy="52.87" r=".25"/>
            <polygon class="cls-1" points="327.77 40.94 328.08 41.25 327.89 41.43 327.59 41.13 327.27 41.43 327.09 41.25 327.41 40.94 327.09 40.63 327.27 40.45 327.59 40.76 327.89 40.45 328.08 40.63 327.77 40.94"/>
          </g>
          <g>
            <circle class="cls-1" cx="273.52" cy="120.56" r=".56"/>
            <circle class="cls-1" cx="221.69" cy="105.34" r=".25"/>
            <polygon class="cls-1" points="233.61 142.76 233.3 143.08 233.12 142.89 233.43 142.58 233.12 142.27 233.3 142.09 233.61 142.4 233.93 142.09 234.11 142.27 233.8 142.58 234.11 142.89 233.93 143.08 233.61 142.76"/>
          </g>
          <g>
            <circle class="cls-1" cx="54.88" cy="98.19" r=".56"/>
            <circle class="cls-1" cx="3.05" cy="82.98" r=".25"/>
            <polygon class="cls-1" points="14.98 120.4 14.67 120.71 14.49 120.52 14.8 120.21 14.49 119.9 14.67 119.72 14.98 120.03 15.29 119.72 15.47 119.9 15.16 120.21 15.47 120.52 15.29 120.71 14.98 120.4"/>
          </g>
          <g class="cls-3">
            <circle class="cls-1" cx="184.64" cy="118.59" r=".56"/>
            <circle class="cls-1" cx="169.42" cy="170.42" r=".25"/>
            <polygon class="cls-1" points="206.84 158.5 207.15 158.81 206.96 158.99 206.66 158.68 206.34 158.99 206.16 158.81 206.48 158.5 206.16 158.18 206.34 158 206.66 158.31 206.96 158 207.15 158.18 206.84 158.5"/>
          </g>
          <g>
            <circle class="cls-1" cx="171.57" cy="61.42" r=".56"/>
            <circle class="cls-1" cx="117.61" cy="59.02" r=".25"/>
            <polygon class="cls-1" points="138.12 92.51 137.9 92.88 137.68 92.75 137.91 92.37 137.53 92.14 137.66 91.93 138.04 92.16 138.27 91.78 138.49 91.91 138.26 92.29 138.63 92.51 138.5 92.74 138.12 92.51"/>
          </g>
          <g>
            <circle class="cls-1" cx="121.32" cy="29.1" r=".73"/>
            <circle class="cls-1" cx="188.31" cy="48.77" r=".33"/>
            <polygon class="cls-1" points="172.9 .4 173.3 0 173.53 .24 173.13 .64 173.53 1.04 173.3 1.28 172.9 .87 172.49 1.28 172.26 1.04 172.66 .64 172.26 .24 172.49 0 172.9 .4"/>
          </g>
          <g>
            <circle class="cls-1" cx="410.26" cy="27.94" r=".73"/>
            <circle class="cls-1" cx="427.18" cy="95.68" r=".33"/>
            <polygon class="cls-1" points="461.1 57.92 461.65 58.06 461.57 58.38 461.02 58.24 460.87 58.79 460.55 58.7 460.7 58.15 460.15 58.01 460.23 57.69 460.78 57.83 460.92 57.28 461.25 57.36 461.1 57.92"/>
          </g>
          <g class="cls-3">
            <circle class="cls-1" cx="224.68" cy="18.92" r=".45"/>
            <circle class="cls-1" cx="266.21" cy="31.12" r=".2"/>
            <polygon class="cls-1" points="256.66 1.13 256.91 .88 257.05 1.03 256.8 1.28 257.05 1.53 256.91 1.67 256.66 1.42 256.41 1.67 256.26 1.53 256.51 1.28 256.26 1.03 256.41 .88 256.66 1.13"/>
          </g>
          <g class="cls-3">
            <circle class="cls-1" cx="54.99" cy="185.47" r=".45"/>
            <circle class="cls-1" cx="96.52" cy="197.67" r=".2"/>
            <polygon class="cls-1" points="86.96 167.68 87.21 167.43 87.35 167.58 87.11 167.83 87.35 168.08 87.21 168.22 86.96 167.97 86.71 168.22 86.57 168.08 86.81 167.83 86.57 167.58 86.71 167.43 86.96 167.68"/>
          </g>
          <g class="cls-3">
            <circle class="cls-1" cx="20.59" cy="29.94" r=".45"/>
            <circle class="cls-1" cx="62.12" cy="42.13" r=".2"/>
            <polygon class="cls-1" points="52.56 12.15 52.81 11.89 52.96 12.04 52.71 12.29 52.96 12.54 52.81 12.69 52.56 12.44 52.31 12.69 52.17 12.54 52.42 12.29 52.17 12.04 52.31 11.89 52.56 12.15"/>
          </g>
          <g class="cls-3">
            <circle class="cls-1" cx="392.96" cy="99.45" r=".45"/>
            <circle class="cls-1" cx="434.49" cy="111.65" r=".2"/>
            <polygon class="cls-1" points="424.94 81.66 425.18 81.41 425.33 81.56 425.08 81.81 425.33 82.06 425.18 82.2 424.94 81.95 424.69 82.2 424.54 82.06 424.79 81.81 424.54 81.56 424.69 81.41 424.94 81.66"/>
          </g>
          <g>
            <circle class="cls-1" cx="621.02" cy="419.05" r=".56"/>
            <circle class="cls-1" cx="569.19" cy="403.83" r=".25"/>
            <polygon class="cls-1" points="581.11 441.25 580.8 441.57 580.62 441.38 580.93 441.07 580.62 440.76 580.8 440.58 581.11 440.89 581.43 440.58 581.61 440.76 581.3 441.07 581.61 441.38 581.43 441.57 581.11 441.25"/>
          </g>
          <g class="cls-2">
            <circle class="cls-1" cx="599.41" cy="225.74" r=".56"/>
            <circle class="cls-1" cx="584.19" cy="277.57" r=".25"/>
            <polygon class="cls-1" points="621.61 265.65 621.92 265.96 621.74 266.14 621.43 265.83 621.11 266.14 620.93 265.96 621.25 265.65 620.93 265.33 621.11 265.15 621.43 265.46 621.74 265.15 621.92 265.33 621.61 265.65"/>
          </g>
          <g>
            <circle class="cls-1" cx="567.36" cy="345.26" r=".56"/>
            <circle class="cls-1" cx="515.53" cy="330.05" r=".25"/>
            <polygon class="cls-1" points="527.45 367.47 527.14 367.78 526.96 367.59 527.27 367.28 526.96 366.97 527.14 366.79 527.45 367.1 527.77 366.79 527.95 366.97 527.64 367.28 527.95 367.59 527.77 367.78 527.45 367.47"/>
          </g>
          <g>
            <circle class="cls-1" cx="348.72" cy="322.9" r=".56"/>
            <circle class="cls-1" cx="296.89" cy="307.68" r=".25"/>
            <polygon class="cls-1" points="308.82 345.1 308.51 345.41 308.33 345.23 308.64 344.92 308.33 344.6 308.51 344.42 308.82 344.74 309.13 344.42 309.31 344.6 309 344.92 309.31 345.23 309.13 345.41 308.82 345.1"/>
          </g>
          <g class="cls-3">
            <circle class="cls-1" cx="478.48" cy="343.3" r=".56"/>
            <circle class="cls-1" cx="463.26" cy="395.12" r=".25"/>
            <polygon class="cls-1" points="500.68 383.2 500.99 383.51 500.81 383.69 500.5 383.38 500.18 383.69 500 383.51 500.32 383.2 500 382.89 500.18 382.71 500.5 383.01 500.81 382.71 500.99 382.89 500.68 383.2"/>
          </g>
          <g>
            <circle class="cls-1" cx="465.41" cy="286.12" r=".56"/>
            <circle class="cls-1" cx="411.45" cy="283.72" r=".25"/>
            <polygon class="cls-1" points="431.97 317.21 431.74 317.59 431.52 317.45 431.75 317.08 431.37 316.85 431.5 316.63 431.88 316.86 432.11 316.48 432.33 316.61 432.1 316.99 432.48 317.22 432.34 317.44 431.97 317.21"/>
          </g>
          <g>
            <circle class="cls-1" cx="415.16" cy="253.8" r=".73"/>
            <circle class="cls-1" cx="482.15" cy="273.47" r=".33"/>
            <polygon class="cls-1" points="466.74 225.11 467.14 224.7 467.37 224.94 466.97 225.34 467.37 225.75 467.14 225.98 466.74 225.57 466.33 225.98 466.1 225.75 466.5 225.34 466.1 224.94 466.33 224.7 466.74 225.11"/>
          </g>
          <g>
            <circle class="cls-1" cx="704.1" cy="252.64" r=".73"/>
            <circle class="cls-1" cx="721.02" cy="320.38" r=".33"/>
            <polygon class="cls-1" points="754.94 282.62 755.49 282.76 755.41 283.08 754.86 282.94 754.71 283.49 754.39 283.41 754.54 282.86 753.99 282.71 754.07 282.39 754.62 282.53 754.76 281.99 755.09 282.07 754.94 282.62"/>
          </g>
          <g class="cls-3">
            <circle class="cls-1" cx="518.53" cy="243.62" r=".45"/>
            <circle class="cls-1" cx="560.06" cy="255.82" r=".2"/>
            <polygon class="cls-1" points="550.5 225.83 550.75 225.58 550.89 225.73 550.65 225.98 550.89 226.23 550.75 226.37 550.5 226.12 550.25 226.37 550.1 226.23 550.35 225.98 550.1 225.73 550.25 225.58 550.5 225.83"/>
          </g>
          <g class="cls-3">
            <circle class="cls-1" cx="348.83" cy="410.17" r=".45"/>
            <circle class="cls-1" cx="390.36" cy="422.37" r=".2"/>
            <polygon class="cls-1" points="380.8 392.38 381.05 392.13 381.2 392.28 380.95 392.53 381.2 392.78 381.05 392.92 380.8 392.67 380.55 392.92 380.41 392.78 380.65 392.53 380.41 392.28 380.55 392.13 380.8 392.38"/>
          </g>
          <g class="cls-3">
            <circle class="cls-1" cx="314.43" cy="254.64" r=".45"/>
            <circle class="cls-1" cx="355.96" cy="266.83" r=".2"/>
            <polygon class="cls-1" points="346.41 236.85 346.65 236.6 346.8 236.75 346.55 236.99 346.8 237.24 346.65 237.39 346.41 237.14 346.15 237.39 346.01 237.24 346.26 236.99 346.01 236.75 346.15 236.6 346.41 236.85"/>
          </g>
          <g class="cls-3">
            <circle class="cls-1" cx="686.8" cy="324.16" r=".45"/>
            <circle class="cls-1" cx="728.33" cy="336.35" r=".2"/>
            <polygon class="cls-1" points="718.78 306.37 719.03 306.11 719.17 306.26 718.92 306.51 719.17 306.76 719.03 306.91 718.78 306.66 718.53 306.91 718.38 306.76 718.63 306.51 718.38 306.26 718.53 306.11 718.78 306.37"/>
          </g>
          <g>
            <circle class="cls-1" cx="755.37" cy="197.69" r=".56"/>
            <circle class="cls-1" cx="703.54" cy="182.47" r=".25"/>
            <polygon class="cls-1" points="715.47 219.89 715.16 220.21 714.98 220.02 715.29 219.71 714.98 219.4 715.16 219.22 715.47 219.53 715.78 219.22 715.96 219.4 715.65 219.71 715.96 220.02 715.78 220.21 715.47 219.89"/>
          </g>
          <g class="cls-2">
            <circle class="cls-1" cx="733.76" cy="4.38" r=".56"/>
            <circle class="cls-1" cx="718.54" cy="56.21" r=".25"/>
            <polygon class="cls-1" points="755.96 44.28 756.28 44.59 756.09 44.77 755.78 44.47 755.47 44.77 755.29 44.59 755.6 44.28 755.29 43.97 755.47 43.79 755.78 44.1 756.09 43.79 756.28 43.97 755.96 44.28"/>
          </g>
          <g>
            <circle class="cls-1" cx="701.71" cy="123.9" r=".56"/>
            <circle class="cls-1" cx="649.88" cy="108.68" r=".25"/>
            <polygon class="cls-1" points="661.81 146.1 661.5 146.42 661.32 146.23 661.63 145.92 661.32 145.61 661.5 145.43 661.81 145.74 662.12 145.43 662.3 145.61 661.99 145.92 662.3 146.23 662.12 146.42 661.81 146.1"/>
          </g>
          <g>
            <circle class="cls-1" cx="483.08" cy="101.53" r=".56"/>
            <circle class="cls-1" cx="431.25" cy="86.32" r=".25"/>
            <polygon class="cls-1" points="443.17 123.74 442.87 124.05 442.68 123.86 442.99 123.55 442.68 123.24 442.87 123.06 443.17 123.37 443.49 123.06 443.67 123.24 443.36 123.55 443.67 123.86 443.49 124.05 443.17 123.74"/>
          </g>
          <g class="cls-3">
            <circle class="cls-1" cx="612.83" cy="121.93" r=".56"/>
            <circle class="cls-1" cx="597.61" cy="173.76" r=".25"/>
            <polygon class="cls-1" points="635.03 161.84 635.35 162.15 635.16 162.33 634.85 162.02 634.54 162.33 634.36 162.15 634.67 161.84 634.36 161.52 634.54 161.34 634.85 161.65 635.16 161.34 635.35 161.52 635.03 161.84"/>
          </g>
          <g>
            <circle class="cls-1" cx="599.77" cy="64.76" r=".56"/>
            <circle class="cls-1" cx="545.81" cy="62.36" r=".25"/>
            <polygon class="cls-1" points="566.32 95.85 566.1 96.22 565.88 96.09 566.1 95.71 565.73 95.48 565.86 95.27 566.24 95.5 566.46 95.12 566.68 95.25 566.46 95.63 566.83 95.85 566.7 96.08 566.32 95.85"/>
          </g>
          <g>
            <circle class="cls-1" cx="549.52" cy="32.44" r=".73"/>
            <circle class="cls-1" cx="616.51" cy="52.11" r=".33"/>
            <polygon class="cls-1" points="601.09 3.74 601.49 3.34 601.73 3.58 601.33 3.98 601.73 4.38 601.49 4.62 601.09 4.21 600.69 4.62 600.46 4.38 600.85 3.98 600.46 3.58 600.69 3.34 601.09 3.74"/>
          </g>
          <g class="cls-3">
            <circle class="cls-1" cx="652.88" cy="22.26" r=".45"/>
            <circle class="cls-1" cx="694.41" cy="34.46" r=".2"/>
            <polygon class="cls-1" points="684.86 4.47 685.1 4.22 685.25 4.37 685 4.62 685.25 4.87 685.1 5.01 684.86 4.76 684.61 5.01 684.46 4.87 684.71 4.62 684.46 4.37 684.61 4.22 684.86 4.47"/>
          </g>
          <g class="cls-3">
            <circle class="cls-1" cx="483.18" cy="188.81" r=".45"/>
            <circle class="cls-1" cx="524.71" cy="201.01" r=".2"/>
            <polygon class="cls-1" points="515.16 171.02 515.41 170.77 515.55 170.92 515.3 171.17 515.55 171.42 515.41 171.56 515.16 171.31 514.91 171.56 514.76 171.42 515.01 171.17 514.76 170.92 514.91 170.77 515.16 171.02"/>
          </g>
          <g class="cls-3">
            <circle class="cls-1" cx="448.79" cy="33.28" r=".45"/>
            <circle class="cls-1" cx="490.32" cy="45.47" r=".2"/>
            <polygon class="cls-1" points="480.76 15.49 481.01 15.24 481.15 15.38 480.91 15.63 481.15 15.88 481.01 16.03 480.76 15.78 480.51 16.03 480.37 15.88 480.61 15.63 480.37 15.38 480.51 15.24 480.76 15.49"/>
          </g>
          <g>
            <circle class="cls-1" cx="209.82" cy="479.65" r=".56"/>
            <circle class="cls-1" cx="157.99" cy="464.43" r=".25"/>
          </g>
          <g class="cls-2">
            <circle class="cls-1" cx="188.21" cy="286.34" r=".56"/>
            <circle class="cls-1" cx="172.99" cy="338.17" r=".25"/>
            <polygon class="cls-1" points="210.41 326.24 210.73 326.55 210.54 326.73 210.23 326.42 209.92 326.73 209.74 326.55 210.05 326.24 209.74 325.93 209.92 325.75 210.23 326.06 210.54 325.75 210.73 325.93 210.41 326.24"/>
          </g>
          <g>
            <circle class="cls-1" cx="156.16" cy="405.86" r=".56"/>
            <circle class="cls-1" cx="104.33" cy="390.64" r=".25"/>
            <polygon class="cls-1" points="116.26 428.06 115.95 428.37 115.77 428.19 116.08 427.88 115.77 427.57 115.95 427.39 116.26 427.7 116.57 427.39 116.75 427.57 116.44 427.88 116.75 428.19 116.57 428.37 116.26 428.06"/>
          </g>
          <g class="cls-3">
            <circle class="cls-1" cx="67.28" cy="403.89" r=".56"/>
            <circle class="cls-1" cx="52.06" cy="455.72" r=".25"/>
            <polygon class="cls-1" points="89.48 443.8 89.8 444.1 89.61 444.29 89.3 443.98 88.99 444.29 88.81 444.1 89.12 443.8 88.81 443.48 88.99 443.3 89.3 443.61 89.61 443.3 89.8 443.48 89.48 443.8"/>
          </g>
          <g>
            <circle class="cls-1" cx="54.22" cy="346.72" r=".56"/>
            <circle class="cls-1" cx=".26" cy="344.32" r=".25"/>
            <polygon class="cls-1" points="20.77 377.8 20.55 378.18 20.33 378.05 20.55 377.67 20.18 377.44 20.31 377.22 20.68 377.45 20.91 377.07 21.13 377.21 20.91 377.59 21.28 377.81 21.15 378.03 20.77 377.8"/>
          </g>
          <g>
            <circle class="cls-1" cx="3.97" cy="314.4" r=".73"/>
            <circle class="cls-1" cx="70.96" cy="334.07" r=".33"/>
            <polygon class="cls-1" points="55.54 285.7 55.94 285.3 56.18 285.54 55.78 285.94 56.18 286.34 55.94 286.57 55.54 286.17 55.14 286.57 54.9 286.34 55.3 285.94 54.9 285.54 55.14 285.3 55.54 285.7"/>
          </g>
          <g>
            <circle class="cls-1" cx="292.9" cy="313.24" r=".73"/>
            <circle class="cls-1" cx="309.82" cy="380.98" r=".33"/>
            <polygon class="cls-1" points="343.75 343.22 344.3 343.36 344.21 343.68 343.67 343.54 343.52 344.08 343.2 344 343.35 343.45 342.79 343.31 342.88 342.99 343.43 343.13 343.57 342.58 343.89 342.66 343.75 343.22"/>
          </g>
          <g class="cls-3">
            <circle class="cls-1" cx="107.33" cy="304.22" r=".45"/>
            <circle class="cls-1" cx="148.86" cy="316.41" r=".2"/>
            <polygon class="cls-1" points="139.31 286.43 139.55 286.18 139.7 286.33 139.45 286.57 139.7 286.82 139.55 286.97 139.31 286.72 139.05 286.97 138.91 286.82 139.16 286.57 138.91 286.33 139.05 286.18 139.31 286.43"/>
          </g>
          <g class="cls-3">
            <circle class="cls-1" cx="275.61" cy="384.75" r=".45"/>
            <circle class="cls-1" cx="317.14" cy="396.95" r=".2"/>
            <polygon class="cls-1" points="307.58 366.96 307.83 366.71 307.98 366.86 307.73 367.11 307.98 367.36 307.83 367.5 307.58 367.25 307.33 367.5 307.19 367.36 307.43 367.11 307.19 366.86 307.33 366.71 307.58 366.96"/>
          </g>
        </g>
      </g>
    </g>
  </g>
</svg>