<svg xmlns="http://www.w3.org/2000/svg" viewBox="0 0 756.28 480.21" xmlns:v="https://vecta.io/nano"><style><![CDATA[.B{mix-blend-mode:darken}.A{isolation:isolate}.E{opacity:.6}.F{fill:#892b0e}.G{opacity:.7}]]></style><g class="A F"><circle class="B E" cx="327.18" cy="194.35" r=".56"/><circle class="B E" cx="275.35" cy="179.13" r=".25"/><path class="B E" d="M287.27 216.55l-.31.31-.18-.18.31-.31-.31-.31.18-.18.31.31.32-.31.18.18-.31.31.31.31-.18.18-.32-.31z"/><g class="E"><circle class="B E" cx="305.57" cy="1.04" r=".56"/><circle class="B E" cx="290.35" cy="52.87" r=".25"/><path class="B E" d="M327.77 40.94l.31.31-.19.18-.3-.3-.32.3-.18-.18.32-.31-.32-.31.18-.18.32.31.3-.31.19.18-.31.31z"/></g><circle class="B E" cx="273.52" cy="120.56" r=".56"/><circle class="B E" cx="221.69" cy="105.34" r=".25"/><path class="B E" d="M233.61 142.76l-.31.32-.18-.19.31-.31-.31-.31.18-.18.31.31.32-.31.18.18-.31.31.31.31-.18.19-.32-.32z"/><circle class="B E" cx="54.88" cy="98.19" r=".56"/><circle class="B E" cx="3.05" cy="82.98" r=".25"/><path class="B E" d="M14.98 120.4l-.31.31-.18-.19.31-.31-.31-.31.18-.18.31.31.31-.31.18.18-.31.31.31.31-.18.19-.31-.31z"/><g class="G"><circle class="B E" cx="184.64" cy="118.59" r=".56"/><circle class="B E" cx="169.42" cy="170.42" r=".25"/><path class="B E" d="M206.84 158.5l.31.31-.19.18-.3-.31-.32.31-.18-.18.32-.31-.32-.32.18-.18.32.31.3-.31.19.18-.31.32z"/></g><circle class="B E" cx="171.57" cy="61.42" r=".56"/><circle class="B E" cx="117.61" cy="59.02" r=".25"/><path class="B E" d="M138.12 92.51l-.22.37-.22-.13.23-.38-.38-.23.13-.21.38.23.23-.38.22.13-.23.38.37.22-.13.23-.38-.23z"/><circle class="B E" cx="121.32" cy="29.1" r=".73"/><circle class="B E" cx="188.31" cy="48.77" r=".33"/><path class="B E" d="M172.9.4l.4-.4.23.24-.4.4.4.4-.23.24-.4-.41-.41.41-.23-.24.4-.4-.4-.4.23-.24.41.4z"/><circle class="B E" cx="410.26" cy="27.94" r=".73"/><circle class="B E" cx="427.18" cy="95.68" r=".33"/><path class="B E" d="M461.1 57.92l.55.14-.08.32-.55-.14-.15.55-.32-.09.15-.55-.55-.14.08-.32.55.14.14-.55.33.08-.15.56z"/><g class="G"><circle class="B E" cx="224.68" cy="18.92" r=".45"/><circle class="B E" cx="266.21" cy="31.12" r=".2"/><path class="B E" d="M256.66 1.13l.25-.25.14.15-.25.25.25.25-.14.14-.25-.25-.25.25-.15-.14.25-.25-.25-.25.15-.15.25.25z"/></g><g class="G"><circle class="B E" cx="54.99" cy="185.47" r=".45"/><circle class="B E" cx="96.52" cy="197.67" r=".2"/><path class="B E" d="M86.96 167.68l.25-.25.14.15-.24.25.24.25-.14.14-.25-.25-.25.25-.14-.14.24-.25-.24-.25.14-.15.25.25z"/></g><g class="G"><circle class="B E" cx="20.59" cy="29.94" r=".45"/><circle class="B E" cx="62.12" cy="42.13" r=".2"/><path class="B E" d="M52.56 12.15l.25-.26.15.15-.25.25.25.25-.15.15-.25-.25-.25.25-.14-.15.25-.25-.25-.25.14-.15.25.26z"/></g><g class="G"><circle class="B E" cx="392.96" cy="99.45" r=".45"/><circle class="B E" cx="434.49" cy="111.65" r=".2"/><path class="B E" d="M424.94 81.66l.24-.25.15.15-.25.25.25.25-.15.14-.24-.25-.25.25-.15-.14.25-.25-.25-.25.15-.15.25.25z"/></g><circle class="B E" cx="621.02" cy="419.05" r=".56"/><circle class="B E" cx="569.19" cy="403.83" r=".25"/><path class="B E" d="M581.11 441.25l-.31.32-.18-.19.31-.31-.31-.31.18-.18.31.31.32-.31.18.18-.31.31.31.31-.18.19-.32-.32z"/><g class="E"><circle class="B E" cx="599.41" cy="225.74" r=".56"/><circle class="B E" cx="584.19" cy="277.57" r=".25"/><path class="B E" d="M621.61 265.65l.31.31-.18.18-.31-.31-.32.31-.18-.18.32-.31-.32-.32.18-.18.32.31.31-.31.18.18-.31.32z"/></g><circle class="B E" cx="567.36" cy="345.26" r=".56"/><circle class="B E" cx="515.53" cy="330.05" r=".25"/><path class="B E" d="M527.45 367.47l-.31.31-.18-.19.31-.31-.31-.31.18-.18.31.31.32-.31.18.18-.31.31.31.31-.18.19-.32-.31z"/><circle class="B E" cx="348.72" cy="322.9" r=".56"/><circle class="B E" cx="296.89" cy="307.68" r=".25"/><path class="B E" d="M308.82 345.1l-.31.31-.18-.18.31-.31-.31-.32.18-.18.31.32.31-.32.18.18-.31.32.31.31-.18.18-.31-.31z"/><g class="G"><circle class="B E" cx="478.48" cy="343.3" r=".56"/><circle class="B E" cx="463.26" cy="395.12" r=".25"/><path class="B E" d="M500.68 383.2l.31.31-.18.18-.31-.31-.32.31-.18-.18.32-.31-.32-.31.18-.18.32.3.31-.3.18.18-.31.31z"/></g><circle class="B E" cx="465.41" cy="286.12" r=".56"/><circle class="B E" cx="411.45" cy="283.72" r=".25"/><path class="B E" d="M431.97 317.21l-.23.38-.22-.14.23-.37-.38-.23.13-.22.38.23.23-.38.22.13-.23.38.38.23-.14.22-.37-.23z"/><circle class="B E" cx="415.16" cy="253.8" r=".73"/><circle class="B E" cx="482.15" cy="273.47" r=".33"/><path class="B E" d="M466.74 225.11l.4-.41.23.24-.4.4.4.41-.23.23-.4-.41-.41.41-.23-.23.4-.41-.4-.4.23-.24.41.41z"/><circle class="B E" cx="704.1" cy="252.64" r=".73"/><circle class="B E" cx="721.02" cy="320.38" r=".33"/><path class="B E" d="M754.94 282.62l.55.14-.08.32-.55-.14-.15.55-.32-.08.15-.55-.55-.15.08-.32.55.14.14-.54.33.08-.15.55z"/><g class="G"><circle class="B E" cx="518.53" cy="243.62" r=".45"/><circle class="B E" cx="560.06" cy="255.82" r=".2"/><path class="B E" d="M550.5 225.83l.25-.25.14.15-.24.25.24.25-.14.14-.25-.25-.25.25-.15-.14.25-.25-.25-.25.15-.15.25.25z"/></g><g class="G"><circle class="B E" cx="348.83" cy="410.17" r=".45"/><circle class="B E" cx="390.36" cy="422.37" r=".2"/><path class="B E" d="M380.8 392.38l.25-.25.15.15-.25.25.25.25-.15.14-.25-.25-.25.25-.14-.14.24-.25-.24-.25.14-.15.25.25z"/></g><g class="G"><circle class="B E" cx="314.43" cy="254.64" r=".45"/><circle class="B E" cx="355.96" cy="266.83" r=".2"/><path class="B E" d="M346.41 236.85l.24-.25.15.15-.25.24.25.25-.15.15-.24-.25-.26.25-.14-.15.25-.25-.25-.24.14-.15.26.25z"/></g><g class="G"><circle class="B E" cx="686.8" cy="324.16" r=".45"/><circle class="B E" cx="728.33" cy="336.35" r=".2"/><path class="B E" d="M718.78 306.37l.25-.26.14.15-.25.25.25.25-.14.15-.25-.25-.25.25-.15-.15.25-.25-.25-.25.15-.15.25.26z"/></g><circle class="B E" cx="755.37" cy="197.69" r=".56"/><circle class="B E" cx="703.54" cy="182.47" r=".25"/><path class="B E" d="M715.47 219.89l-.31.32-.18-.19.31-.31-.31-.31.18-.18.31.31.31-.31.18.18-.31.31.31.31-.18.19-.31-.32z"/><g class="E"><circle class="B E" cx="733.76" cy="4.38" r=".56"/><circle class="B E" cx="718.54" cy="56.21" r=".25"/><path class="B E" d="M755.96 44.28l.32.31-.19.18-.31-.3-.31.3-.18-.18.31-.31-.31-.31.18-.18.31.31.31-.31.19.18-.32.31z"/></g><circle class="B E" cx="701.71" cy="123.9" r=".56"/><circle class="B E" cx="649.88" cy="108.68" r=".25"/><path class="B E" d="M661.81 146.1l-.31.32-.18-.19.31-.31-.31-.31.18-.18.31.31.31-.31.18.18-.31.31.31.31-.18.19-.31-.32z"/><circle class="B E" cx="483.08" cy="101.53" r=".56"/><circle class="B E" cx="431.25" cy="86.32" r=".25"/><path class="B E" d="M443.17 123.74l-.3.31-.19-.19.31-.31-.31-.31.19-.18.3.31.32-.31.18.18-.31.31.31.31-.18.19-.32-.31z"/><g class="G"><circle class="B E" cx="612.83" cy="121.93" r=".56"/><circle class="B E" cx="597.61" cy="173.76" r=".25"/><path class="B E" d="M635.03 161.84l.32.31-.19.18-.31-.31-.31.31-.18-.18.31-.31-.31-.32.18-.18.31.31.31-.31.19.18-.32.32z"/></g><circle class="B E" cx="599.77" cy="64.76" r=".56"/><circle class="B E" cx="545.81" cy="62.36" r=".25"/><path class="B E" d="M566.32 95.85l-.22.37-.22-.13.22-.38-.37-.23.13-.21.38.23.22-.38.22.13-.22.38.37.22-.13.23-.38-.23z"/><circle class="B E" cx="549.52" cy="32.44" r=".73"/><circle class="B E" cx="616.51" cy="52.11" r=".33"/><path class="B E" d="M601.09 3.74l.4-.4.24.24-.4.4.4.4-.24.24-.4-.41-.4.41-.23-.24.39-.4-.39-.4.23-.24.4.4z"/><g class="G"><circle class="B E" cx="652.88" cy="22.26" r=".45"/><circle class="B E" cx="694.41" cy="34.46" r=".2"/><path class="B E" d="M684.86 4.47l.24-.25.15.15-.25.25.25.25-.15.14-.24-.25-.25.25-.15-.14.25-.25-.25-.25.15-.15.25.25z"/></g><g class="G"><circle class="B E" cx="483.18" cy="188.81" r=".45"/><circle class="B E" cx="524.71" cy="201.01" r=".2"/><path class="B E" d="M515.16 171.02l.25-.25.14.15-.25.25.25.25-.14.14-.25-.25-.25.25-.15-.14.25-.25-.25-.25.15-.15.25.25z"/></g><g class="G"><circle class="B E" cx="448.79" cy="33.28" r=".45"/><circle class="B E" cx="490.32" cy="45.47" r=".2"/><path class="B E" d="M480.76 15.49l.25-.25.14.14-.24.25.24.25-.14.15-.25-.25-.25.25-.14-.15.24-.25-.24-.25.14-.14.25.25z"/></g><circle class="B E" cx="209.82" cy="479.65" r=".56"/><circle class="B E" cx="157.99" cy="464.43" r=".25"/><g class="E"><circle class="B E" cx="188.21" cy="286.34" r=".56"/><circle class="B E" cx="172.99" cy="338.17" r=".25"/><path class="B E" d="M210.41 326.24l.32.31-.19.18-.31-.31-.31.31-.18-.18.31-.31-.31-.31.18-.18.31.31.31-.31.19.18-.32.31z"/></g><circle class="B E" cx="156.16" cy="405.86" r=".56"/><circle class="B E" cx="104.33" cy="390.64" r=".25"/><path class="B E" d="M116.26 428.06l-.31.31-.18-.18.31-.31-.31-.31.18-.18.31.31.31-.31.18.18-.31.31.31.31-.18.18-.31-.31z"/><g class="G"><circle class="B E" cx="67.28" cy="403.89" r=".56"/><circle class="B E" cx="52.06" cy="455.72" r=".25"/><path class="B E" d="M89.48 443.8l.32.3-.19.19-.31-.31-.31.31-.18-.19.31-.3-.31-.32.18-.18.31.31.31-.31.19.18-.32.32z"/></g><circle class="B E" cx="54.22" cy="346.72" r=".56"/><circle class="B E" cx=".26" cy="344.32" r=".25"/><path class="B E" d="M20.77 377.8l-.22.38-.22-.13.22-.38-.37-.23.13-.22.37.23.23-.38.22.14-.22.38.37.22-.13.22-.38-.23z"/><circle class="B E" cx="3.97" cy="314.4" r=".73"/><circle class="B E" cx="70.96" cy="334.07" r=".33"/><path class="B E" d="M55.54 285.7l.4-.4.24.24-.4.4.4.4-.24.23-.4-.4-.4.4-.24-.23.4-.4-.4-.4.24-.24.4.4z"/><circle class="B E" cx="292.9" cy="313.24" r=".73"/><circle class="B E" cx="309.82" cy="380.98" r=".33"/><path class="B E" d="M343.75 343.22l.55.14-.09.32-.54-.14-.15.54-.32-.08.15-.55-.56-.14.09-.32.55.14.14-.55.32.08-.14.56z"/><g class="G"><circle class="B E" cx="107.33" cy="304.22" r=".45"/><circle class="B E" cx="148.86" cy="316.41" r=".2"/><path class="B E" d="M139.31 286.43l.24-.25.15.15-.25.24.25.25-.15.15-.24-.25-.26.25-.14-.15.25-.25-.25-.24.14-.15.26.25z"/></g><g class="G"><circle class="B E" cx="275.61" cy="384.75" r=".45"/><circle class="B E" cx="317.14" cy="396.95" r=".2"/><path class="B E" d="M307.58 366.96l.25-.25.15.15-.25.25.25.25-.15.14-.25-.25-.25.25-.14-.14.24-.25-.24-.25.14-.15.25.25z"/></g></g></svg>