<?xml version="1.0" encoding="UTF-8"?>
<svg xmlns="http://www.w3.org/2000/svg" viewBox="0 0 756.28 480.21">
  <defs>
    <style>
      .cls-1 {
        fill: #892b0e;
        mix-blend-mode: darken;
      }

      .cls-1, .cls-2 {
        opacity: .6;
      }

      .cls-3 {
        opacity: .7;
      }

      .cls-4 {
        isolation: isolate;
      }
    </style>
  </defs>
  <g class="cls-4">
    <g id="Layer_2" data-name="Layer 2">
      <g id="Layer_1-2" data-name="Layer 1">
        <g>
          <g>
            <circle class="cls-1" cx="327.18" cy="285.86" r=".56"/>
            <circle class="cls-1" cx="275.35" cy="301.08" r=".25"/>
            <polygon class="cls-1" points="287.27 263.66 286.96 263.35 286.78 263.53 287.09 263.84 286.78 264.15 286.96 264.33 287.27 264.02 287.59 264.33 287.77 264.15 287.46 263.84 287.77 263.53 287.59 263.35 287.27 263.66"/>
          </g>
          <g class="cls-2">
            <circle class="cls-1" cx="305.57" cy="479.17" r=".56"/>
            <circle class="cls-1" cx="290.35" cy="427.34" r=".25"/>
            <polygon class="cls-1" points="327.77 439.27 328.08 438.96 327.89 438.78 327.59 439.09 327.27 438.78 327.09 438.96 327.41 439.27 327.09 439.58 327.27 439.76 327.59 439.45 327.89 439.76 328.08 439.58 327.77 439.27"/>
          </g>
          <g>
            <circle class="cls-1" cx="273.52" cy="359.65" r=".56"/>
            <circle class="cls-1" cx="221.69" cy="374.87" r=".25"/>
            <polygon class="cls-1" points="233.61 337.45 233.3 337.14 233.12 337.32 233.43 337.63 233.12 337.94 233.3 338.12 233.61 337.81 233.93 338.12 234.11 337.94 233.8 337.63 234.11 337.32 233.93 337.14 233.61 337.45"/>
          </g>
          <g>
            <circle class="cls-1" cx="54.88" cy="382.02" r=".56"/>
            <circle class="cls-1" cx="3.05" cy="397.24" r=".25"/>
            <polygon class="cls-1" points="14.98 359.82 14.67 359.5 14.49 359.69 14.8 360 14.49 360.31 14.67 360.49 14.98 360.18 15.29 360.49 15.47 360.31 15.16 360 15.47 359.69 15.29 359.5 14.98 359.82"/>
          </g>
          <g class="cls-3">
            <circle class="cls-1" cx="184.64" cy="361.62" r=".56"/>
            <circle class="cls-1" cx="169.42" cy="309.79" r=".25"/>
            <polygon class="cls-1" points="206.84 321.71 207.15 321.41 206.96 321.22 206.66 321.53 206.34 321.22 206.16 321.41 206.48 321.71 206.16 322.03 206.34 322.21 206.66 321.9 206.96 322.21 207.15 322.03 206.84 321.71"/>
          </g>
          <g>
            <circle class="cls-1" cx="171.57" cy="418.79" r=".56"/>
            <circle class="cls-1" cx="117.61" cy="421.19" r=".25"/>
            <polygon class="cls-1" points="138.12 387.7 137.9 387.33 137.68 387.46 137.91 387.84 137.53 388.07 137.66 388.29 138.04 388.06 138.27 388.43 138.49 388.3 138.26 387.92 138.63 387.7 138.5 387.48 138.12 387.7"/>
          </g>
          <g>
            <circle class="cls-1" cx="121.32" cy="451.11" r=".73"/>
            <circle class="cls-1" cx="188.31" cy="431.44" r=".33"/>
            <polygon class="cls-1" points="172.9 479.81 173.3 480.21 173.53 479.97 173.13 479.57 173.53 479.17 173.3 478.93 172.9 479.34 172.49 478.93 172.26 479.17 172.66 479.57 172.26 479.97 172.49 480.21 172.9 479.81"/>
          </g>
          <g>
            <circle class="cls-1" cx="410.26" cy="452.27" r=".73"/>
            <circle class="cls-1" cx="427.18" cy="384.53" r=".33"/>
            <polygon class="cls-1" points="461.1 422.29 461.65 422.15 461.57 421.83 461.02 421.97 460.87 421.42 460.55 421.51 460.7 422.06 460.15 422.2 460.23 422.52 460.78 422.38 460.92 422.93 461.25 422.85 461.1 422.29"/>
          </g>
          <g class="cls-3">
            <circle class="cls-1" cx="224.68" cy="461.29" r=".45"/>
            <circle class="cls-1" cx="266.21" cy="449.1" r=".2"/>
            <polygon class="cls-1" points="256.66 479.08 256.91 479.33 257.05 479.18 256.8 478.94 257.05 478.69 256.91 478.54 256.66 478.79 256.41 478.54 256.26 478.69 256.51 478.94 256.26 479.18 256.41 479.33 256.66 479.08"/>
          </g>
          <g class="cls-3">
            <circle class="cls-1" cx="54.99" cy="294.74" r=".45"/>
            <circle class="cls-1" cx="96.52" cy="282.55" r=".2"/>
            <polygon class="cls-1" points="86.96 312.53 87.21 312.78 87.35 312.63 87.11 312.39 87.35 312.14 87.21 311.99 86.96 312.24 86.71 311.99 86.57 312.14 86.81 312.39 86.57 312.63 86.71 312.78 86.96 312.53"/>
          </g>
          <g class="cls-3">
            <circle class="cls-1" cx="20.59" cy="450.28" r=".45"/>
            <circle class="cls-1" cx="62.12" cy="438.08" r=".2"/>
            <polygon class="cls-1" points="52.56 468.07 52.81 468.32 52.96 468.17 52.71 467.92 52.96 467.67 52.81 467.53 52.56 467.78 52.31 467.53 52.17 467.67 52.42 467.92 52.17 468.17 52.31 468.32 52.56 468.07"/>
          </g>
          <g class="cls-3">
            <circle class="cls-1" cx="392.96" cy="380.76" r=".45"/>
            <circle class="cls-1" cx="434.49" cy="368.56" r=".2"/>
            <polygon class="cls-1" points="424.94 398.55 425.18 398.8 425.33 398.65 425.08 398.4 425.33 398.15 425.18 398.01 424.94 398.26 424.69 398.01 424.54 398.15 424.79 398.4 424.54 398.65 424.69 398.8 424.94 398.55"/>
          </g>
          <g>
            <circle class="cls-1" cx="621.02" cy="61.16" r=".56"/>
            <circle class="cls-1" cx="569.19" cy="76.38" r=".25"/>
            <polygon class="cls-1" points="581.11 38.96 580.8 38.64 580.62 38.83 580.93 39.14 580.62 39.45 580.8 39.63 581.11 39.32 581.43 39.63 581.61 39.45 581.3 39.14 581.61 38.83 581.43 38.64 581.11 38.96"/>
          </g>
          <g class="cls-2">
            <circle class="cls-1" cx="599.41" cy="254.47" r=".56"/>
            <circle class="cls-1" cx="584.19" cy="202.64" r=".25"/>
            <polygon class="cls-1" points="621.61 214.56 621.92 214.26 621.74 214.08 621.43 214.38 621.11 214.08 620.93 214.26 621.25 214.56 620.93 214.88 621.11 215.06 621.43 214.75 621.74 215.06 621.92 214.88 621.61 214.56"/>
          </g>
          <g>
            <circle class="cls-1" cx="567.36" cy="134.95" r=".56"/>
            <circle class="cls-1" cx="515.53" cy="150.17" r=".25"/>
            <polygon class="cls-1" points="527.45 112.75 527.14 112.43 526.96 112.62 527.27 112.93 526.96 113.24 527.14 113.42 527.45 113.11 527.77 113.42 527.95 113.24 527.64 112.93 527.95 112.62 527.77 112.43 527.45 112.75"/>
          </g>
          <g>
            <circle class="cls-1" cx="348.72" cy="157.32" r=".56"/>
            <circle class="cls-1" cx="296.89" cy="172.53" r=".25"/>
            <polygon class="cls-1" points="308.82 135.11 308.51 134.8 308.33 134.99 308.64 135.3 308.33 135.61 308.51 135.79 308.82 135.48 309.13 135.79 309.31 135.61 309 135.3 309.31 134.99 309.13 134.8 308.82 135.11"/>
          </g>
          <g class="cls-3">
            <circle class="cls-1" cx="478.48" cy="136.92" r=".56"/>
            <circle class="cls-1" cx="463.26" cy="85.09" r=".25"/>
            <polygon class="cls-1" points="500.68 97.01 500.99 96.7 500.81 96.52 500.5 96.83 500.18 96.52 500 96.7 500.32 97.01 500 97.33 500.18 97.51 500.5 97.2 500.81 97.51 500.99 97.33 500.68 97.01"/>
          </g>
          <g>
            <circle class="cls-1" cx="465.41" cy="194.09" r=".56"/>
            <circle class="cls-1" cx="411.45" cy="196.49" r=".25"/>
            <polygon class="cls-1" points="431.97 163 431.74 162.63 431.52 162.76 431.75 163.14 431.37 163.37 431.5 163.58 431.88 163.35 432.11 163.73 432.33 163.6 432.1 163.22 432.48 163 432.34 162.77 431.97 163"/>
          </g>
          <g>
            <circle class="cls-1" cx="415.16" cy="226.41" r=".73"/>
            <circle class="cls-1" cx="482.15" cy="206.74" r=".33"/>
            <polygon class="cls-1" points="466.74 255.1 467.14 255.51 467.37 255.27 466.97 254.87 467.37 254.47 467.14 254.23 466.74 254.64 466.33 254.23 466.1 254.47 466.5 254.87 466.1 255.27 466.33 255.51 466.74 255.1"/>
          </g>
          <g>
            <circle class="cls-1" cx="704.1" cy="227.57" r=".73"/>
            <circle class="cls-1" cx="721.02" cy="159.83" r=".33"/>
            <polygon class="cls-1" points="754.94 197.59 755.49 197.45 755.41 197.13 754.86 197.27 754.71 196.72 754.39 196.81 754.54 197.36 753.99 197.5 754.07 197.82 754.62 197.68 754.76 198.23 755.09 198.15 754.94 197.59"/>
          </g>
          <g class="cls-3">
            <circle class="cls-1" cx="518.53" cy="236.59" r=".45"/>
            <circle class="cls-1" cx="560.06" cy="224.39" r=".2"/>
            <polygon class="cls-1" points="550.5 254.38 550.75 254.63 550.89 254.48 550.65 254.23 550.89 253.98 550.75 253.84 550.5 254.09 550.25 253.84 550.1 253.98 550.35 254.23 550.1 254.48 550.25 254.63 550.5 254.38"/>
          </g>
          <g class="cls-3">
            <circle class="cls-1" cx="348.83" cy="70.04" r=".45"/>
            <circle class="cls-1" cx="390.36" cy="57.84" r=".2"/>
            <polygon class="cls-1" points="380.8 87.83 381.05 88.08 381.2 87.93 380.95 87.68 381.2 87.43 381.05 87.29 380.8 87.54 380.55 87.29 380.41 87.43 380.65 87.68 380.41 87.93 380.55 88.08 380.8 87.83"/>
          </g>
          <g class="cls-3">
            <circle class="cls-1" cx="314.43" cy="225.57" r=".45"/>
            <circle class="cls-1" cx="355.96" cy="213.38" r=".2"/>
            <polygon class="cls-1" points="346.41 243.36 346.65 243.61 346.8 243.47 346.55 243.22 346.8 242.97 346.65 242.82 346.41 243.07 346.15 242.82 346.01 242.97 346.26 243.22 346.01 243.47 346.15 243.61 346.41 243.36"/>
          </g>
          <g class="cls-3">
            <circle class="cls-1" cx="686.8" cy="156.06" r=".45"/>
            <circle class="cls-1" cx="728.33" cy="143.86" r=".2"/>
            <polygon class="cls-1" points="718.78 173.85 719.03 174.1 719.17 173.95 718.92 173.7 719.17 173.45 719.03 173.31 718.78 173.56 718.53 173.31 718.38 173.45 718.63 173.7 718.38 173.95 718.53 174.1 718.78 173.85"/>
          </g>
          <g>
            <circle class="cls-1" cx="755.37" cy="282.52" r=".56"/>
            <circle class="cls-1" cx="703.54" cy="297.74" r=".25"/>
            <polygon class="cls-1" points="715.47 260.32 715.16 260.01 714.98 260.19 715.29 260.5 714.98 260.81 715.16 260.99 715.47 260.68 715.78 260.99 715.96 260.81 715.65 260.5 715.96 260.19 715.78 260.01 715.47 260.32"/>
          </g>
          <g class="cls-2">
            <circle class="cls-1" cx="733.76" cy="475.83" r=".56"/>
            <circle class="cls-1" cx="718.54" cy="424" r=".25"/>
            <polygon class="cls-1" points="755.96 435.93 756.28 435.62 756.09 435.44 755.78 435.75 755.47 435.44 755.29 435.62 755.6 435.93 755.29 436.24 755.47 436.42 755.78 436.11 756.09 436.42 756.28 436.24 755.96 435.93"/>
          </g>
          <g>
            <circle class="cls-1" cx="701.71" cy="356.31" r=".56"/>
            <circle class="cls-1" cx="649.88" cy="371.53" r=".25"/>
            <polygon class="cls-1" points="661.81 334.11 661.5 333.8 661.32 333.98 661.63 334.29 661.32 334.6 661.5 334.78 661.81 334.47 662.12 334.78 662.3 334.6 661.99 334.29 662.3 333.98 662.12 333.8 661.81 334.11"/>
          </g>
          <g>
            <circle class="cls-1" cx="483.08" cy="378.68" r=".56"/>
            <circle class="cls-1" cx="431.25" cy="393.9" r=".25"/>
            <polygon class="cls-1" points="443.17 356.48 442.87 356.16 442.68 356.35 442.99 356.66 442.68 356.97 442.87 357.15 443.17 356.84 443.49 357.15 443.67 356.97 443.36 356.66 443.67 356.35 443.49 356.16 443.17 356.48"/>
          </g>
          <g class="cls-3">
            <circle class="cls-1" cx="612.83" cy="358.28" r=".56"/>
            <circle class="cls-1" cx="597.61" cy="306.45" r=".25"/>
            <polygon class="cls-1" points="635.03 318.37 635.35 318.07 635.16 317.88 634.85 318.19 634.54 317.88 634.36 318.07 634.67 318.37 634.36 318.69 634.54 318.87 634.85 318.56 635.16 318.87 635.35 318.69 635.03 318.37"/>
          </g>
          <g>
            <circle class="cls-1" cx="599.77" cy="415.45" r=".56"/>
            <circle class="cls-1" cx="545.81" cy="417.85" r=".25"/>
            <polygon class="cls-1" points="566.32 384.36 566.1 383.99 565.88 384.12 566.1 384.5 565.73 384.73 565.86 384.95 566.24 384.72 566.46 385.09 566.68 384.96 566.46 384.58 566.83 384.36 566.7 384.14 566.32 384.36"/>
          </g>
          <g>
            <circle class="cls-1" cx="549.52" cy="447.77" r=".73"/>
            <circle class="cls-1" cx="616.51" cy="428.1" r=".33"/>
            <polygon class="cls-1" points="601.09 476.47 601.49 476.87 601.73 476.63 601.33 476.23 601.73 475.83 601.49 475.59 601.09 476 600.69 475.59 600.46 475.83 600.85 476.23 600.46 476.63 600.69 476.87 601.09 476.47"/>
          </g>
          <g class="cls-3">
            <circle class="cls-1" cx="652.88" cy="457.95" r=".45"/>
            <circle class="cls-1" cx="694.41" cy="445.76" r=".2"/>
            <polygon class="cls-1" points="684.86 475.74 685.1 475.99 685.25 475.84 685 475.6 685.25 475.35 685.1 475.2 684.86 475.45 684.61 475.2 684.46 475.35 684.71 475.6 684.46 475.84 684.61 475.99 684.86 475.74"/>
          </g>
          <g class="cls-3">
            <circle class="cls-1" cx="483.18" cy="291.4" r=".45"/>
            <circle class="cls-1" cx="524.71" cy="279.21" r=".2"/>
            <polygon class="cls-1" points="515.16 309.19 515.41 309.44 515.55 309.29 515.3 309.05 515.55 308.79 515.41 308.65 515.16 308.9 514.91 308.65 514.76 308.79 515.01 309.05 514.76 309.29 514.91 309.44 515.16 309.19"/>
          </g>
          <g class="cls-3">
            <circle class="cls-1" cx="448.79" cy="446.94" r=".45"/>
            <circle class="cls-1" cx="490.32" cy="434.74" r=".2"/>
            <polygon class="cls-1" points="480.76 464.73 481.01 464.98 481.15 464.83 480.91 464.58 481.15 464.33 481.01 464.19 480.76 464.44 480.51 464.19 480.37 464.33 480.61 464.58 480.37 464.83 480.51 464.98 480.76 464.73"/>
          </g>
          <g>
            <circle class="cls-1" cx="209.82" cy=".56" r=".56"/>
            <circle class="cls-1" cx="157.99" cy="15.78" r=".25"/>
          </g>
          <g class="cls-2">
            <circle class="cls-1" cx="188.21" cy="193.87" r=".56"/>
            <circle class="cls-1" cx="172.99" cy="142.04" r=".25"/>
            <polygon class="cls-1" points="210.41 153.97 210.73 153.66 210.54 153.48 210.23 153.79 209.92 153.48 209.74 153.66 210.05 153.97 209.74 154.28 209.92 154.46 210.23 154.15 210.54 154.46 210.73 154.28 210.41 153.97"/>
          </g>
          <g>
            <circle class="cls-1" cx="156.16" cy="74.35" r=".56"/>
            <circle class="cls-1" cx="104.33" cy="89.57" r=".25"/>
            <polygon class="cls-1" points="116.26 52.15 115.95 51.84 115.77 52.02 116.08 52.33 115.77 52.64 115.95 52.82 116.26 52.51 116.57 52.82 116.75 52.64 116.44 52.33 116.75 52.02 116.57 51.84 116.26 52.15"/>
          </g>
          <g class="cls-3">
            <circle class="cls-1" cx="67.28" cy="76.32" r=".56"/>
            <circle class="cls-1" cx="52.06" cy="24.49" r=".25"/>
            <polygon class="cls-1" points="89.48 36.42 89.8 36.11 89.61 35.93 89.3 36.24 88.99 35.93 88.81 36.11 89.12 36.42 88.81 36.73 88.99 36.91 89.3 36.6 89.61 36.91 89.8 36.73 89.48 36.42"/>
          </g>
          <g>
            <circle class="cls-1" cx="54.22" cy="133.5" r=".56"/>
            <circle class="cls-1" cx=".26" cy="135.9" r=".25"/>
            <polygon class="cls-1" points="20.77 102.41 20.55 102.03 20.33 102.17 20.55 102.54 20.18 102.77 20.31 102.99 20.68 102.76 20.91 103.14 21.13 103 20.91 102.63 21.28 102.4 21.15 102.18 20.77 102.41"/>
          </g>
          <g>
            <circle class="cls-1" cx="3.97" cy="165.81" r=".73"/>
            <circle class="cls-1" cx="70.96" cy="146.14" r=".33"/>
            <polygon class="cls-1" points="55.54 194.51 55.94 194.91 56.18 194.67 55.78 194.28 56.18 193.87 55.94 193.64 55.54 194.04 55.14 193.64 54.9 193.87 55.3 194.28 54.9 194.67 55.14 194.91 55.54 194.51"/>
          </g>
          <g>
            <circle class="cls-1" cx="292.9" cy="166.97" r=".73"/>
            <circle class="cls-1" cx="309.82" cy="99.23" r=".33"/>
            <polygon class="cls-1" points="343.75 137 344.3 136.86 344.21 136.53 343.67 136.68 343.52 136.13 343.2 136.21 343.35 136.76 342.79 136.9 342.88 137.22 343.43 137.08 343.57 137.63 343.89 137.55 343.75 137"/>
          </g>
          <g class="cls-3">
            <circle class="cls-1" cx="107.33" cy="175.99" r=".45"/>
            <circle class="cls-1" cx="148.86" cy="163.8" r=".2"/>
            <polygon class="cls-1" points="139.31 193.78 139.55 194.03 139.7 193.89 139.45 193.64 139.7 193.39 139.55 193.24 139.31 193.49 139.05 193.24 138.91 193.39 139.16 193.64 138.91 193.89 139.05 194.03 139.31 193.78"/>
          </g>
          <g class="cls-3">
            <circle class="cls-1" cx="275.61" cy="95.46" r=".45"/>
            <circle class="cls-1" cx="317.14" cy="83.27" r=".2"/>
            <polygon class="cls-1" points="307.58 113.25 307.83 113.5 307.98 113.35 307.73 113.11 307.98 112.85 307.83 112.71 307.58 112.96 307.33 112.71 307.19 112.85 307.43 113.11 307.19 113.35 307.33 113.5 307.58 113.25"/>
          </g>
        </g>
      </g>
    </g>
  </g>
</svg>