<svg xmlns="http://www.w3.org/2000/svg" xmlns:xlink="http://www.w3.org/1999/xlink" viewBox="0 0 895.28 895.28"><defs><style>.cls-1{fill:url(#linear-gradient);}.cls-2{fill:#fff;}</style><linearGradient id="linear-gradient" x1="173.84" y1="786.24" x2="727.58" y2="101.45" gradientUnits="userSpaceOnUse"><stop offset="0" stop-color="#62687a"/><stop offset="0.99" stop-color="#9d9d9e"/></linearGradient></defs><g id="Layer_2" data-name="Layer 2"><g id="Layer_1-2" data-name="Layer 1"><circle class="cls-1" cx="447.64" cy="447.64" r="447.64"/><path class="cls-2" d="M508.76,387.31A131.49,131.49,0,0,1,509.07,573l-.31.32L450.6,631.52c-51.3,51.3-134.76,51.29-186,0s-51.3-134.76,0-186l32.11-32.12c8.52-8.51,23.18-2.85,23.62,9.18a160,160,0,0,0,8.39,45.63,13.94,13.94,0,0,1-3.27,14.38l-11.33,11.33c-24.26,24.26-25,63.75-1,88.25a62.39,62.39,0,0,0,88.56.44L459.8,524.4a62.3,62.3,0,0,0,0-88.13,65.45,65.45,0,0,0-8.95-7.42,13.88,13.88,0,0,1-6-10.91A34.5,34.5,0,0,1,455,392.14l18.22-18.22a13.9,13.9,0,0,1,17.82-1.5,131.56,131.56,0,0,1,17.76,14.89Zm122-122c-51.29-51.29-134.75-51.3-186,0l-58.16,58.16-.32.32a131.62,131.62,0,0,0,18.08,200.62,13.91,13.91,0,0,0,17.81-1.5l18.23-18.23a34.49,34.49,0,0,0,10.12-25.79,13.88,13.88,0,0,0-6-10.91,64.85,64.85,0,0,1-8.95-7.42,62.3,62.3,0,0,1,0-88.14l58.16-58.15a62.39,62.39,0,0,1,88.56.44c24,24.5,23.26,64-1,88.25L569.89,414.3a13.91,13.91,0,0,0-3.28,14.37A159.4,159.4,0,0,1,575,474.3c.44,12,15.11,17.7,23.62,9.18l32.12-32.11c51.3-51.29,51.3-134.76,0-186Z"/></g></g></svg>