<svg xmlns="http://www.w3.org/2000/svg" viewBox="0 0 192 192"><defs><style>.cls-1{fill:#f2f2f2;}.cls-2{fill:#443937;}</style></defs><g id="Layer_2" data-name="Layer 2"><g id="Layer_1-2" data-name="Layer 1"><circle class="cls-1" cx="96" cy="96" r="96"/><path class="cls-2" d="M82.89,96.49c-.21,5.15-5.71,9.47-12.25,9.47s-11.4-4.32-10.83-9.47c.55-5,6-9,12.2-9S83.08,91.49,82.89,96.49Z"/><path class="cls-2" d="M132.21,96.63c-.55-5-6-9-12.21-9s-11.08,4-10.88,9c.21,5.16,5.71,9.48,12.25,9.48S132.77,101.79,132.21,96.63Zm0,0c-.55-5-6-9-12.21-9s-11.08,4-10.88,9c.21,5.16,5.71,9.48,12.25,9.48S132.77,101.79,132.21,96.63Zm19.9,22.54-6.75-42.45C145,74.66,142.55,73,139.81,73H52.19c-2.74,0-5.22,1.66-5.55,3.72l-6.75,42.45c-.43,2.71,1.81,4.94,5,4.94H147.11C150.3,124.11,152.54,121.88,152.11,119.17Zm-82-6.61c-11.11,0-19.16-7.4-18-16.07,1.1-8.24,10.18-14.65,20.3-14.65s18.24,6.41,18.11,14.65C90.41,105.16,81.25,112.56,70.15,112.56Zm51.72.16c-11.11,0-20.27-7.41-20.41-16.09-.14-8.25,8-14.66,18.11-14.66s19.21,6.41,20.31,14.66C141,105.31,133,112.72,121.87,112.72ZM120,87.66c-6.19,0-11.08,4-10.88,9,.21,5.16,5.71,9.48,12.25,9.48s11.4-4.32,10.84-9.48C131.66,91.62,126.19,87.66,120,87.66Zm12.21,9c-.55-5-6-9-12.21-9s-11.08,4-10.88,9c.21,5.16,5.71,9.48,12.25,9.48S132.77,101.79,132.21,96.63Zm0,0c-.55-5-6-9-12.21-9s-11.08,4-10.88,9c.21,5.16,5.71,9.48,12.25,9.48S132.77,101.79,132.21,96.63Z"/><path class="cls-2" d="M99.63,50.62a3.36,3.36,0,0,0,4.75,4.75,23.52,23.52,0,0,1,33.24,0,3.36,3.36,0,0,0,4.75-4.75,30.26,30.26,0,0,0-42.74,0Z"/><path class="cls-2" d="M109.13,60.12a3.36,3.36,0,1,0,4.75,4.75,10.07,10.07,0,0,1,14.24,0,3.36,3.36,0,1,0,4.75-4.75,16.8,16.8,0,0,0-23.74,0Z"/><path class="cls-2" d="M90.6,129.5h10.8a0,0,0,0,1,0,0v15.31a5.4,5.4,0,0,1-5.4,5.4h0a5.4,5.4,0,0,1-5.4-5.4V129.5A0,0,0,0,1,90.6,129.5Z"/></g></g></svg>