<?xml version="1.0" encoding="utf-8"?>
<!-- Generator: Adobe Illustrator 26.5.0, SVG Export Plug-In . SVG Version: 6.00 Build 0)  -->
<svg version="1.1" id="Capa_1" xmlns="http://www.w3.org/2000/svg" xmlns:xlink="http://www.w3.org/1999/xlink" x="0px" y="0px"
	 viewBox="0 0 417.7 417.7" style="enable-background:new 0 0 417.7 417.7;" xml:space="preserve">
<style type="text/css">
	.st0{fill:#C76D3D;}
	.st1{fill:#D67F4F;}
	.st2{fill:#9D552E;}
	.st3{fill:#8E4D29;}
</style>
<path class="st0" d="M417.7,208.8c0,115.3-93.5,208.8-208.8,208.8c-5.9,0-11.8-0.2-17.6-0.7c107.1-8.9,191.2-98.7,191.2-208.1
	S298.3,9.7,191.2,0.7C197,0.2,202.9,0,208.8,0C324.2,0,417.7,93.5,417.7,208.8z"/>
<path class="st1" d="M382.5,208.8c0,109.4-84.1,199.2-191.2,208.1C84.1,408,0,318.2,0,208.8S84.1,9.7,191.2,0.7
	C298.3,9.7,382.5,99.4,382.5,208.8z"/>
<g>
	<path class="st2" d="M116.7,176.3l-33.5-3.4c-6.1-0.6-11.3-5-13-10.8l-12-42.2c-2.2-7.9,2.2-16.1,9.9-18.4l39.2-12.3
		c5.8-1.8,12.1,0,16.1,4.7l24.7,29.4c4.2,5.1,4.7,12.3,1.2,17.8l-18.4,28.5C127.8,174.2,122.4,176.8,116.7,176.3L116.7,176.3z"/>
	<path class="st3" d="M149.2,141l-18.4,28.5c-3.1,4.8-8.5,7.3-14.2,6.9l-31-3.2c1.3-1,2.5-2.2,3.4-3.7l18.4-28.5
		c3.7-5.6,3.1-12.7-1.2-17.8L83.8,96.5l23.7-7.3c5.8-1.8,12.1,0,16.1,4.7l24.7,29.4C152.3,128.2,152.9,135.5,149.2,141L149.2,141z"
		/>
</g>
<g>
	<path class="st2" d="M184.8,288.1l-3.6,36.2c-0.6,6.6-5.4,12.2-11.7,14.1l-45.7,13c-8.5,2.4-17.4-2.4-19.9-10.7l-13.3-42.4
		c-1.9-6.3,0-13.1,5.1-17.4l31.8-26.7c5.5-4.6,13.3-5.1,19.3-1.3l30.8,19.9C182.6,276,185.4,282.1,184.8,288.1L184.8,288.1z"/>
	<path class="st3" d="M184.8,288.1l-3.6,36.2c-0.6,6.6-5.4,12.2-11.7,14.1l-45.7,13c-7.3,2.1-14.9-1.3-18.5-7.6l19-5.4
		c6.5-1.9,11.1-7.4,11.7-14.1l3.6-36.2c0.6-6.2-2.2-12-7.4-15.3l-15.3-10l10.4-8.9c5.5-4.6,13.3-5.1,19.3-1.3l30.8,19.9
		C182.6,276,185.4,282.1,184.8,288.1L184.8,288.1z"/>
</g>
<g>
	<path class="st2" d="M304.7,34.3l-2.4,24.2c-0.4,4.4-3.6,8.1-7.8,9.4l-30.5,8.7c-5.7,1.6-11.6-1.6-13.3-7.2L241.8,41
		c-1.3-4.2,0-8.8,3.4-11.6l21.2-17.8c3.7-3.1,8.9-3.4,12.9-0.8l20.6,13.3C303.2,26.3,305.1,30.2,304.7,34.3L304.7,34.3z"/>
	<path class="st3" d="M304.7,34.3l-2.4,24.2c-0.4,4.4-3.6,8.1-7.8,9.4l-30.5,8.7c-4.9,1.4-9.9-0.8-12.4-5.1l12.7-3.6
		c4.3-1.3,7.4-5,7.8-9.4l2.4-24.2c0.4-4.1-1.5-8-5-10.2l-10.2-6.7l7-5.9c3.7-3.1,8.9-3.4,12.9-0.8l20.6,13.3
		C303.2,26.3,305.1,30.2,304.7,34.3L304.7,34.3z"/>
</g>
<g>
	<path class="st2" d="M341.2,181.3l-3.7,36.9c-0.7,6.8-5.4,12.4-12,14.4l-46.6,13.1c-8.7,2.5-17.7-2.5-20.3-11.1l-13.4-43.2
		c-1.9-6.4,0-13.4,5.1-17.7l32.5-27.2c5.5-4.7,13.5-5.3,19.6-1.2l31.4,20.3C339,169,341.9,175.1,341.2,181.3L341.2,181.3z"/>
	<path class="st3" d="M341.2,181.3l-3.7,36.9c-0.7,6.8-5.4,12.4-12,14.4l-46.6,13.1c-6.8,1.9-14-0.7-17.8-6.1l25-7
		c6.5-1.9,11.3-7.6,12-14.4l3.7-36.9c0.7-6.2-2.2-12.3-7.5-15.6L275,153.3l7.9-6.5c5.5-4.7,13.5-5.3,19.6-1.2l31.4,20.3
		C339,169,341.9,175.1,341.2,181.3L341.2,181.3z"/>
</g>
<g>
	<path class="st2" d="M338.7,301.8l22.2,27.2c4.1,5,4.7,12,1.5,17.4l-22.3,39.9c-4.1,7.4-13.4,10.2-20.9,6.2l-37.8-19.9
		c-5.6-2.9-8.8-9-8.3-15.2l3.5-39.8c0.6-6.8,5.6-12.4,12.3-14l34.4-7.4C329,295.1,334.9,297.2,338.7,301.8L338.7,301.8z"/>
	<path class="st3" d="M362.4,346.4l-22.3,39.9c-4.1,7.4-13.4,10.2-20.9,6.2l-20-10.6l19.9-35.5c3.2-5.6,2.6-12.6-1.5-17.4
		l-21.7-26.6l27.6-5.9c5.8-1.2,11.7,0.9,15.5,5.5l22.2,27.2C364.8,333.8,365.4,340.7,362.4,346.4L362.4,346.4z"/>
</g>
<path class="st0" d="M285.1,302.5h-13.2c-5.2,0-9.2-4.2-9.2-9.2s4.2-9.2,9.2-9.2h13.2c5.2,0,9.2,4.2,9.2,9.2
	S290.3,302.5,285.1,302.5z"/>
<path class="st3" d="M201.6,353.7c-5.2,0-9.2-4.2-9.2-9.2v-13.2c0-5.2,4.2-9.2,9.2-9.2s9.2,4.2,9.2,9.2v13.2
	C210.8,349.5,206.8,353.7,201.6,353.7z"/>
<path class="st3" d="M346.9,152.9c-5.2,0-9.2-4.2-9.2-9.2v-13.2c0-5.2,4.2-9.2,9.2-9.2s9.2,4.2,9.2,9.2v13.2
	C356.3,148.7,352.1,152.9,346.9,152.9z"/>
<path class="st0" d="M167,125.3h-13.2c-5.2,0-9.2-4.2-9.2-9.2c0-5.2,4.2-9.2,9.2-9.2H167c5.2,0,9.2,4.2,9.2,9.2
	S172.2,125.3,167,125.3z"/>
<path class="st2" d="M111.6,90.8c-2.4,0-4.8-1-6.6-2.8c-3.6-3.6-3.6-9.5,0-13.1l9.4-9.4c3.6-3.6,9.5-3.6,13.1,0
	c3.6,3.6,3.6,9.5,0,13.1l-9.4,9.4C116.3,89.9,113.9,90.8,111.6,90.8L111.6,90.8z"/>
<path class="st0" d="M354.8,216.6h-0.1c-4.3,0-7.7-3.5-7.7-7.7s3.5-7.7,7.7-7.7h0.1c4.3,0,7.7,3.5,7.7,7.7S359,216.6,354.8,216.6z"
	/>
<path class="st2" d="M151.3,213.8h-0.1c-5.2,0-9.2-4.2-9.2-9.2s4.2-9.2,9.2-9.2h0.1c5.2,0,9.2,4.2,9.2,9.2S156.4,213.8,151.3,213.8z
	"/>
<path class="st2" d="M291.8,117.6h-0.1c-5.2,0-9.2-4.2-9.2-9.2s4.2-9.2,9.2-9.2h0.1c5.2,0,9.2,4.2,9.2,9.2S297,117.6,291.8,117.6z"
	/>
<path class="st0" d="M319.2,299.6h-0.1c-5.2,0-9.2-4.2-9.2-9.2s4.2-9.2,9.2-9.2h0.1c5.2,0,9.2,4.2,9.2,9.2S324.4,299.6,319.2,299.6z
	"/>
<path class="st0" d="M75.8,271.2h-0.1c-5.2,0-9.2-4.2-9.2-9.2s4.2-9.2,9.2-9.2h0.1c5.2,0,9.2,4.2,9.2,9.2S81,271.2,75.8,271.2z"/>
<path class="st0" d="M75.8,349.7h-0.1c-5.2,0-9.2-4.2-9.2-9.2s4.2-9.2,9.2-9.2h0.1c5.2,0,9.2,4.2,9.2,9.2S81,349.7,75.8,349.7z"/>
<path class="st2" d="M226.3,162.2h-0.1c-5.2,0-9.2-4.2-9.2-9.2s4.2-9.2,9.2-9.2h0.1c5.2,0,9.2,4.2,9.2,9.2S231.5,162.2,226.3,162.2z
	"/>
<path class="st0" d="M54.6,261.6h-0.1c-5.2,0-9.2-4.2-9.2-9.2s4.2-9.2,9.2-9.2h0.1c5.2,0,9.2,4.2,9.2,9.2S59.8,261.6,54.6,261.6z"/>
<path class="st0" d="M204.8,66.8h-0.1c-5.2,0-9.2-4.2-9.2-9.2s4.2-9.2,9.2-9.2h0.1c5.2,0,9.2,4.2,9.2,9.2S210,66.8,204.8,66.8z"/>
</svg>
