<svg xmlns="http://www.w3.org/2000/svg" xmlns:xlink="http://www.w3.org/1999/xlink" viewBox="0 0 100 100"><defs><style>.cls-1{fill:none;}.cls-2{clip-path:url(#clip-path);}.cls-3{fill:url(#linear-gradient);}.cls-4{fill:#685315;}.cls-5{opacity:0.7;}.cls-6{clip-path:url(#clip-path-2);}.cls-7{fill:#d2c00e;}.cls-8{clip-path:url(#clip-path-3);}</style><clipPath id="clip-path"><circle class="cls-1" cx="50" cy="50" r="50"/></clipPath><linearGradient id="linear-gradient" x1="-2094.82" y1="588.64" x2="-2094.7" y2="588.64" gradientTransform="matrix(0, 800, 800, 0, -470864.7, 1675860.39)" gradientUnits="userSpaceOnUse"><stop offset="0" stop-color="#feeb17"/><stop offset="1" stop-color="#f59d1d"/></linearGradient><clipPath id="clip-path-2"><rect class="cls-1" x="19.34" y="20.92" width="14.36" height="7"/></clipPath><clipPath id="clip-path-3"><rect class="cls-1" x="66.23" y="20.84" width="14.36" height="7"/></clipPath></defs><g id="Layer_2" data-name="Layer 2"><g id="Layer_1-2" data-name="Layer 1"><g id="Layer_2-2" data-name="Layer 2"><g id="Layer_1-2-2" data-name="Layer 1-2"><g id="Layer_2-2-2" data-name="Layer 2-2"><g id="Layer_1-2-2-2" data-name="Layer 1-2-2"><g class="cls-2"><rect class="cls-3" width="100" height="100"/></g><path class="cls-4" d="M27.6,71.61a1.35,1.35,0,0,1-1.89-.28l0,0A1.3,1.3,0,0,1,25.53,70c8-20.54,40.86-20.53,48.9,0a1.36,1.36,0,0,1-.74,1.75,1.37,1.37,0,0,1-1.3-.16S65,64.25,50,64.25s-22.41,7.38-22.41,7.38"/><g class="cls-5"><g class="cls-6"><path class="cls-7" d="M32.91,23.29,21,27.84a1.22,1.22,0,1,1-1.07-2.2.67.67,0,0,1,.18-.07h0L32,21a1.22,1.22,0,1,1,.87,2.28"/></g></g><g class="cls-5"><g class="cls-8"><path class="cls-7" d="M67.05,23.21l11.88,4.57a1.22,1.22,0,0,0,1.53-.72,1.2,1.2,0,0,0-.67-1.56h0L67.9,20.94a1.22,1.22,0,0,0-1.61.61h0a1.22,1.22,0,0,0,.63,1.61l.15.06"/></g></g></g></g><ellipse class="cls-4" cx="33.8" cy="39.08" rx="6.11" ry="7.48"/><ellipse class="cls-4" cx="66.21" cy="39.08" rx="6.11" ry="7.48"/></g></g></g></g></svg>