<svg xmlns="http://www.w3.org/2000/svg" xmlns:xlink="http://www.w3.org/1999/xlink" viewBox="0 0 100 100"><defs><style>.cls-1{fill:url(#linear-gradient);}.cls-2{fill:#685315;}.cls-3{fill:#d7557d;}.cls-4{fill:#d2c00e;}</style><linearGradient id="linear-gradient" x1="-5055.65" y1="4869.53" x2="-5155.65" y2="4869.53" gradientTransform="translate(-4819.53 -5054.6) rotate(-90)" gradientUnits="userSpaceOnUse"><stop offset="0" stop-color="#feeb17"/><stop offset="1" stop-color="#f59d1d"/></linearGradient></defs><g id="Layer_2" data-name="Layer 2"><g id="Layer_1-2" data-name="Layer 1"><g id="Layer_2-2" data-name="Layer 2"><g id="Layer_1-2-2" data-name="Layer 1-2"><g id="Layer_2-2-2" data-name="Layer 2-2"><g id="Layer_1-2-2-2" data-name="Layer 1-2-2"><circle class="cls-1" cx="50" cy="50" r="50"/><ellipse class="cls-2" cx="33.8" cy="46.49" rx="6.11" ry="7.48"/><ellipse class="cls-2" cx="66.21" cy="46.49" rx="6.11" ry="7.48"/><path class="cls-2" d="M33.52,76.63a1.55,1.55,0,0,1-1.83-1.16,1.61,1.61,0,0,1,.06-.87,19.5,19.5,0,0,1,1.6-3.83,20.41,20.41,0,0,1,4.18-5.24,18.46,18.46,0,0,1,25,0,20.2,20.2,0,0,1,4.18,5.24,19.27,19.27,0,0,1,1.6,3.94,1.52,1.52,0,0,1-1,1.92,1.44,1.44,0,0,1-.77,0c-3.13-1-5.75-1.76-8.24-2.26a40.82,40.82,0,0,0-8.24-1,39.3,39.3,0,0,0-8.24,1C39.27,74.9,36.62,75.67,33.52,76.63Z"/><path class="cls-3" d="M57.13,72.44A39.54,39.54,0,0,0,50.61,72H49.38a32,32,0,0,0-6.48.6c3.88-2.69,4.9-1.73,6.91-1.73S53.16,69.72,57.13,72.44Z"/><path class="cls-4" d="M27.78,30.16,40.93,36a1.39,1.39,0,0,1,.7,1.82h0a1.38,1.38,0,0,1-1.82.7L26.66,32.68a1.37,1.37,0,0,1-.7-1.82h0A1.39,1.39,0,0,1,27.78,30.16Z"/><path class="cls-4" d="M73.34,32.68,60.19,38.55a1.36,1.36,0,0,1-1.76-.7h0A1.38,1.38,0,0,1,59.12,36l13.1-5.86a1.38,1.38,0,0,1,1.82.68h0A1.37,1.37,0,0,1,73.34,32.68Z"/></g></g></g></g></g></g></svg>