<svg xmlns="http://www.w3.org/2000/svg" xmlns:xlink="http://www.w3.org/1999/xlink" viewBox="0 0 100 100"><defs><style>.cls-1{fill:none;}.cls-2{clip-path:url(#clip-path);}.cls-3{fill:url(#linear-gradient);}.cls-4{fill:#685315;}.cls-5{clip-path:url(#clip-path-2);}.cls-6{fill:url(#linear-gradient-2);}.cls-7{clip-path:url(#clip-path-3);}.cls-8{fill:url(#linear-gradient-3);}.cls-9{opacity:0.7;}.cls-10{clip-path:url(#clip-path-4);}.cls-11{fill:#d2c00e;}.cls-12{clip-path:url(#clip-path-5);}</style><clipPath id="clip-path"><circle class="cls-1" cx="50" cy="50" r="50"/></clipPath><linearGradient id="linear-gradient" x1="-3399.05" y1="591.2" x2="-3398.93" y2="591.2" gradientTransform="matrix(0, 800, 800, 0, -472908.48, 2719250.01)" gradientUnits="userSpaceOnUse"><stop offset="0" stop-color="#feeb17"/><stop offset="1" stop-color="#f59d1d"/></linearGradient><clipPath id="clip-path-2"><path class="cls-1" d="M50,73.63c-4.3,0-8.8-1-15.41,3.35a24.06,24.06,0,0,0,14.07,4.51h2.67A24.09,24.09,0,0,0,65.41,77c-4.61-3-7.94-3.52-10.81-3.52-1.62,0-3.11.17-4.6.17"/></clipPath><linearGradient id="linear-gradient-2" x1="-3436.07" y1="539.89" x2="-3435.95" y2="539.89" gradientTransform="matrix(0, -64.27, -64.27, 0, 34748.71, -220754.8)" gradientUnits="userSpaceOnUse"><stop offset="0" stop-color="#762545"/><stop offset="1" stop-color="#d7557d"/></linearGradient><clipPath id="clip-path-3"><rect class="cls-1" x="27.03" y="59.72" width="45.94" height="6.53"/></clipPath><linearGradient id="linear-gradient-3" x1="-3393.72" y1="581.15" x2="-3393.6" y2="581.15" gradientTransform="matrix(367.5, 0, 0, -367.5, 1247221.4, 213635.85)" gradientUnits="userSpaceOnUse"><stop offset="0" stop-color="#cfcece"/><stop offset="0.3" stop-color="#fff"/><stop offset="0.7" stop-color="#ececec"/><stop offset="1" stop-color="#cfcece"/></linearGradient><clipPath id="clip-path-4"><rect class="cls-1" x="19.34" y="18.4" width="14.36" height="7"/></clipPath><clipPath id="clip-path-5"><rect class="cls-1" x="66.23" y="18.32" width="14.36" height="7"/></clipPath></defs><g id="Layer_2" data-name="Layer 2"><g id="Layer_1-2" data-name="Layer 1"><g id="Layer_2-2" data-name="Layer 2"><g id="Layer_1-2-2" data-name="Layer 1-2"><g id="Layer_2-2-2" data-name="Layer 2-2"><g id="Layer_1-2-2-2" data-name="Layer 1-2-2"><g class="cls-2"><rect class="cls-3" width="100" height="100"/></g><path class="cls-4" d="M75.05,60.93A23.17,23.17,0,0,1,73,68,23.93,23.93,0,0,1,51.33,81.49H48.66A23.93,23.93,0,0,1,27,68,23,23,0,0,1,25,60.94a2.62,2.62,0,0,1,2.29-2.87H72.4a2.62,2.62,0,0,1,2.67,2.58h0V61"/><g class="cls-5"><rect class="cls-6" x="34.59" y="72.61" width="30.82" height="8.89"/></g><g class="cls-7"><rect class="cls-8" x="27.03" y="59.72" width="45.94" height="6.53"/></g><path class="cls-4" d="M72.29,60.75a20.27,20.27,0,0,1-1.15,4.52c-.19.52-.42,1-.66,1.54A21.27,21.27,0,0,1,51.32,78.74H48.66A21.27,21.27,0,0,1,29.5,66.81c-.24-.51-.47-1-.66-1.53a20.77,20.77,0,0,1-1.15-4.53h44.6M72.4,58H27.6a2.64,2.64,0,0,0-2.7,2.57h0a1.93,1.93,0,0,0,0,.34,23,23,0,0,0,1.34,5.34c.23.58.47,1.16.74,1.73A24,24,0,0,0,48.66,81.49h2.67A23.93,23.93,0,0,0,73,68q.41-.86.75-1.74a23.38,23.38,0,0,0,1.33-5.33v-.35A2.62,2.62,0,0,0,72.39,58"/><g class="cls-9"><g class="cls-10"><path class="cls-11" d="M32.91,20.76,21,25.33a1.24,1.24,0,0,1-1.64-.58,1.21,1.21,0,0,1,.57-1.63.67.67,0,0,1,.18-.07h0L32,18.48a1.22,1.22,0,1,1,.87,2.28h0"/></g></g><g class="cls-9"><g class="cls-12"><path class="cls-11" d="M67.05,20.68l11.88,4.56a1.22,1.22,0,0,0,1.47-.89A1.2,1.2,0,0,0,79.8,23L67.88,18.4a1.22,1.22,0,0,0-1.61.61h0a1.23,1.23,0,0,0,.63,1.61l.15.06"/></g></g></g></g><ellipse class="cls-4" cx="33.76" cy="39.06" rx="6.11" ry="7.48"/><ellipse class="cls-4" cx="66.18" cy="39.06" rx="6.11" ry="7.48"/></g></g></g></g></svg>