<svg xmlns="http://www.w3.org/2000/svg" xmlns:xlink="http://www.w3.org/1999/xlink" viewBox="0 0 98.96 98.96"><defs><style>.cls-1{fill:url(#linear-gradient);}.cls-2{fill:#fff;}</style><linearGradient id="linear-gradient" x1="3.44" y1="70.61" x2="93.41" y2="29.32" gradientUnits="userSpaceOnUse"><stop offset="0.02" stop-color="#373a49"/><stop offset="1" stop-color="#717496"/></linearGradient></defs><g id="Layer_2" data-name="Layer 2"><g id="Layer_1-2" data-name="Layer 1"><circle class="cls-1" cx="49.48" cy="49.48" r="49.48"/><path class="cls-2" d="M34.51,56.93l6.91-.43c0,4.51,3.51,7.08,8.19,7.08,4.14,0,7.93-2.06,7.93-6.36,0-5.74-5.3-5.91-9.87-5.91V45.8c6.79,0,7.65-2,7.65-5.14,0-3.51-2.57-5.19-5.82-5.19-3.69,0-6.14,2.17-6.2,5.74l-6.85-.49c0-7.59,6-12,12.93-12,6.71,0,12.9,4.11,12.9,11.05A8.64,8.64,0,0,1,57,48.08c5.37,1.46,7.42,5.34,7.42,9.71,0,8.19-7.08,12.44-15,12.44C41.48,70.23,34.51,65.86,34.51,56.93Z"/></g></g></svg>