<svg xmlns="http://www.w3.org/2000/svg" xmlns:xlink="http://www.w3.org/1999/xlink" viewBox="0 0 98.96 98.96"><defs><style>.cls-1{fill:url(#linear-gradient);}.cls-2{fill:#fff;}</style><linearGradient id="linear-gradient" x1="3.44" y1="70.61" x2="93.41" y2="29.32" gradientUnits="userSpaceOnUse"><stop offset="0.02" stop-color="#373a49"/><stop offset="1" stop-color="#717496"/></linearGradient></defs><g id="Layer_2" data-name="Layer 2"><g id="Layer_1-2" data-name="Layer 1"><circle class="cls-1" cx="49.48" cy="49.48" r="49.48"/><path class="cls-2" d="M64.15,55.63c0,7.65-6.73,14.3-14.78,14.3-7.25,0-13.1-5.48-14.56-12.27l6.71-1.86c.77,3.68,2.94,7.59,7.85,7.59,4.36,0,7.42-3.91,7.42-7.82a7.1,7.1,0,0,0-7.42-7.42,8.24,8.24,0,0,0-6.85,3.74L36,50.24,39.89,29H62.32v6.65H45.63l-1.46,7.54a12.78,12.78,0,0,1,6.25-1.57A13.91,13.91,0,0,1,64.15,55.63Z"/></g></g></svg>