<svg xmlns="http://www.w3.org/2000/svg" xmlns:xlink="http://www.w3.org/1999/xlink" viewBox="0 0 100 100"><defs><style>.cls-1{fill:url(#linear-gradient);}.cls-2{fill:#685315;}.cls-3{fill:#d2c00e;}</style><linearGradient id="linear-gradient" x1="-6468.78" y1="6280.31" x2="-6568.78" y2="6280.31" gradientTransform="translate(-6230.31 -6467.72) rotate(-90)" gradientUnits="userSpaceOnUse"><stop offset="0" stop-color="#feeb17"/><stop offset="1" stop-color="#f59d1d"/></linearGradient></defs><g id="Layer_2" data-name="Layer 2"><g id="Layer_1-2" data-name="Layer 1"><g id="Layer_2-2" data-name="Layer 2"><g id="Layer_1-2-2" data-name="Layer 1-2"><g id="Layer_2-2-2" data-name="Layer 2-2"><g id="Layer_1-2-2-2" data-name="Layer 1-2-2"><circle class="cls-1" cx="50" cy="50" r="50"/><path class="cls-2" d="M24.79,57.57c-.51-1.48,1-2.79,2.1-1.86s2.16,1.72,3.26,2.48a36.7,36.7,0,0,0,6.47,3.63A29.84,29.84,0,0,0,39.9,63a29.25,29.25,0,0,0,3.32.82,37.57,37.57,0,0,0,13.54,0,33,33,0,0,0,6.59-2,37.07,37.07,0,0,0,6.48-3.63c1.1-.76,2.18-1.59,3.28-2.5s2.56.35,2.1,1.8v.08a27.56,27.56,0,0,1-8.16,11.89,21.09,21.09,0,0,1-1.92,1.46,14.33,14.33,0,0,1-1.91,1.26A25.69,25.69,0,0,1,59,74.07a27.61,27.61,0,0,1-17.91,0,24.45,24.45,0,0,1-4.24-1.91c-.69-.38-1.35-.83-2-1.26s-1.27-1-1.92-1.46a27,27,0,0,1-6.08-7.38,26.34,26.34,0,0,1-2-4.43Z"/><rect class="cls-3" x="18.91" y="23.2" width="15.2" height="2.44" rx="1.22" transform="translate(-6.98 11.09) rotate(-20.95)"/><rect class="cls-3" x="72.18" y="16.75" width="2.44" height="15.2" rx="1.22" transform="translate(24.42 84.2) rotate(-69.05)"/></g></g><ellipse class="cls-2" cx="33.79" cy="38.69" rx="6.11" ry="7.48"/><ellipse class="cls-2" cx="66.21" cy="38.69" rx="6.11" ry="7.48"/></g></g></g></g></svg>