<svg xmlns="http://www.w3.org/2000/svg" viewBox="0 0 192 192"><defs><style>.cls-1{fill:#f2f2f2;}.cls-2{fill:#443937;}</style></defs><g id="Layer_2" data-name="Layer 2"><g id="Layer_1-2" data-name="Layer 1"><circle class="cls-1" cx="96" cy="96" r="96"/><path class="cls-2" d="M131.05,86.5a.84.84,0,0,1,1.36.66v28.76a6.75,6.75,0,0,1-6.75,6.75H67.16a6.75,6.75,0,0,1-6.75-6.75V87.18a.84.84,0,0,1,1.36-.67c3.15,2.45,7.33,5.56,21.67,16,3,2.17,8,6.72,13,6.69s10.13-4.61,13-6.69C123.73,92.07,127.9,89,131.05,86.5ZM96.41,104.67c3.26.06,8-4.11,10.32-5.82,18.66-13.54,20.08-14.73,24.39-18.1a3.38,3.38,0,0,0,1.29-2.66V75.42a6.75,6.75,0,0,0-6.75-6.75H67.16a6.75,6.75,0,0,0-6.75,6.75v2.67a3.41,3.41,0,0,0,1.29,2.66c4.31,3.36,5.73,4.56,24.39,18.1,2.36,1.71,7.06,5.88,10.32,5.82Z"/></g></g></svg>