<svg xmlns="http://www.w3.org/2000/svg" viewBox="0 0 192 192"><defs><style>.cls-1{fill:#f2f2f2;}.cls-2{fill:#443937;}</style></defs><g id="Layer_2" data-name="Layer 2"><g id="Layer_1-2" data-name="Layer 1"><circle class="cls-1" cx="96" cy="96" r="96"/><path class="cls-2" d="M106.62,85.21a23.1,23.1,0,0,1,0,32.64l0,.06L96.39,128.14a23.13,23.13,0,0,1-32.7-32.71l5.64-5.65a2.44,2.44,0,0,1,4.16,1.62,28.21,28.21,0,0,0,1.47,8,2.46,2.46,0,0,1-.57,2.53l-2,2a11,11,0,1,0,15.4,15.59L98,109.31a11,11,0,0,0,0-15.5,11.12,11.12,0,0,0-1.57-1.3,2.44,2.44,0,0,1-1.06-1.92,6,6,0,0,1,1.78-4.53l3.2-3.21a2.45,2.45,0,0,1,3.14-.26,22.91,22.91,0,0,1,3.12,2.62Zm21.44-21.45a23.16,23.16,0,0,0-32.7,0L85.13,74s0,0,0,.05a23.12,23.12,0,0,0,0,32.65,23.66,23.66,0,0,0,3.12,2.62,2.46,2.46,0,0,0,3.14-.27l3.2-3.2a6.06,6.06,0,0,0,1.78-4.53,2.43,2.43,0,0,0-1.06-1.92,11.27,11.27,0,0,1-1.57-1.31,11,11,0,0,1,0-15.49L104,72.37A11,11,0,1,1,119.35,88l-2,2a2.46,2.46,0,0,0-.57,2.53,28.08,28.08,0,0,1,1.47,8,2.43,2.43,0,0,0,4.15,1.61l5.65-5.64a23.15,23.15,0,0,0,0-32.71Z"/></g></g></svg>