<svg xmlns="http://www.w3.org/2000/svg" viewBox="0 0 46.74 46.74"><defs><style>.cls-1{fill:#e47c6f;}.cls-2{fill:#fff;}.cls-3{fill:#a0a8b2;}</style></defs><g id="Layer_2" data-name="Layer 2"><g id="Layer_1-2" data-name="Layer 1"><path class="cls-1" d="M46.74,23.37A23.37,23.37,0,1,1,23.37,0,23.37,23.37,0,0,1,46.74,23.37Z"/><path class="cls-2" d="M38.4,34.5A18.7,18.7,0,0,0,12.24,8.34Z"/><path class="cls-2" d="M8.34,12.24A18.7,18.7,0,0,0,34.5,38.4Z"/><path class="cls-3" d="M20.25,30.38a3.12,3.12,0,0,0,6.24,0l-3.12-3.11a3.12,3.12,0,0,0-3.12,3.11Z"/><path class="cls-3" d="M28.68,24.93l2.13-2.21a10.24,10.24,0,0,0-7.44-3.24Z"/><path class="cls-3" d="M17.49,21.38a10.42,10.42,0,0,0-1.56,1.34l2.13,2.21a7.21,7.21,0,0,1,1.66-1.31Z"/><path class="cls-3" d="M18.05,14.15a16.06,16.06,0,0,1,17,4.13L32.93,20.5a13.13,13.13,0,0,0-12.36-3.84Z"/><path class="cls-3" d="M15.28,19.17a15.47,15.47,0,0,0-1.47,1.33l-2.12-2.22a17.23,17.23,0,0,1,1.4-1.3Z"/></g></g></svg>