<svg xmlns="http://www.w3.org/2000/svg" viewBox="0 0 46.74 46.74"><defs><style>.cls-1{fill:#fff;}.cls-2{fill:#a0a8b2;}.cls-3{fill:#e47c6f;}</style></defs><g id="Layer_2" data-name="Layer 2"><g id="Layer_1-2" data-name="Layer 1"><circle class="cls-1" cx="23.37" cy="23.37" r="21.92"/><path class="cls-2" d="M30.53,27.67H24.8v-8.6h5.73v8.6Zm3.58-6.45h-.72v-.71a.71.71,0,0,0-.71-.72H32v-.72a1.43,1.43,0,0,0-1.43-1.43H13.35a1.43,1.43,0,0,0-1.44,1.43v8.6a1.43,1.43,0,0,0,1.44,1.43H30.53A1.43,1.43,0,0,0,32,27.67V27h.72a.71.71,0,0,0,.71-.72v-.71h.72a.72.72,0,0,0,.72-.72V21.94a.72.72,0,0,0-.72-.72Z"/><path class="cls-3" d="M23.37,0A23.37,23.37,0,1,0,46.74,23.37,23.37,23.37,0,0,0,23.37,0ZM10.13,36.61A18.68,18.68,0,0,1,8.34,12.24L34.5,38.4A18.69,18.69,0,0,1,10.13,36.61ZM38.4,34.5,12.24,8.34A18.7,18.7,0,0,1,38.4,34.5Z"/></g></g></svg>