<svg xmlns="http://www.w3.org/2000/svg" xmlns:xlink="http://www.w3.org/1999/xlink" viewBox="0 0 100 100"><defs><style>.cls-1{fill:url(#linear-gradient);}.cls-2{fill:#fff;}</style><linearGradient id="linear-gradient" x1="3.48" y1="71.35" x2="94.38" y2="29.63" gradientUnits="userSpaceOnUse"><stop offset="0.02" stop-color="#ff3c00"/><stop offset="1" stop-color="#e59e00"/></linearGradient></defs><g id="Layer_2" data-name="Layer 2"><g id="Layer_1-2" data-name="Layer 1"><circle class="cls-1" cx="50" cy="50" r="50"/><path class="cls-2" d="M34.87,57.53l7-.44c0,4.56,3.55,7.16,8.28,7.16,4.18,0,8-2.08,8-6.44,0-5.79-5.37-6-10-6V46.28c6.86,0,7.73-2.05,7.73-5.19,0-3.55-2.6-5.25-5.89-5.25-3.72,0-6.2,2.19-6.25,5.8l-6.92-.49c0-7.67,6-12.11,13.06-12.11,6.78,0,13,4.15,13,11.16a8.74,8.74,0,0,1-5.3,8.39c5.42,1.47,7.5,5.39,7.5,9.8C65.13,66.67,58,71,50,71S34.87,66.55,34.87,57.53Z"/></g></g></svg>