<svg xmlns="http://www.w3.org/2000/svg" xmlns:xlink="http://www.w3.org/1999/xlink" viewBox="0 0 100 100"><defs><style>.cls-1{fill:url(#linear-gradient);}.cls-2{fill:#fff;}</style><linearGradient id="linear-gradient" x1="3.48" y1="71.35" x2="94.38" y2="29.63" gradientUnits="userSpaceOnUse"><stop offset="0.02" stop-color="#03e2b7"/><stop offset="0.98" stop-color="#00e261"/></linearGradient></defs><g id="Layer_2" data-name="Layer 2"><g id="Layer_1-2" data-name="Layer 1"><circle class="cls-1" cx="50" cy="50" r="50"/><path class="cls-2" d="M39.62,29.67V70.42H32.41V41.61H22.89V36h5.45c2.77,0,4.36-1.18,4.36-3.89V29.67Z"/><path class="cls-2" d="M49.25,50c0-8.68,1.41-21,13.76-21,11.21,0,14.1,10.93,14.1,21.08S74.34,71,63.41,71C50.78,71,49.25,58.65,49.25,50ZM69.55,50C69.55,43.43,69.38,36,63,36s-6.58,7.44-6.58,14,.2,14.07,6.81,14.07C69.44,64.1,69.55,56.37,69.55,50Z"/></g></g></svg>