<svg xmlns="http://www.w3.org/2000/svg" xmlns:xlink="http://www.w3.org/1999/xlink" viewBox="0 0 100 100"><defs><style>.cls-1{fill:url(#linear-gradient);}.cls-2{fill:#fff;}</style><linearGradient id="linear-gradient" x1="3.48" y1="71.35" x2="94.38" y2="29.63" gradientUnits="userSpaceOnUse"><stop offset="0.02" stop-color="#ff3c00"/><stop offset="1" stop-color="#e59e00"/></linearGradient></defs><g id="Layer_2" data-name="Layer 2"><g id="Layer_1-2" data-name="Layer 1"><circle class="cls-1" cx="50" cy="50" r="50"/><path class="cls-2" d="M64.82,56.21c0,7.73-6.8,14.45-14.94,14.45-7.32,0-13.23-5.53-14.7-12.4L42,56.39c.78,3.72,3,7.67,7.93,7.67,4.42,0,7.5-4,7.5-7.9a7.17,7.17,0,0,0-7.5-7.5A8.33,8.33,0,0,0,43,52.44l-6.6-1.68,4-21.42H63v6.72H46.11l-1.47,7.61A12.92,12.92,0,0,1,51,42.08,14.07,14.07,0,0,1,64.82,56.21Z"/></g></g></svg>