<svg xmlns="http://www.w3.org/2000/svg" xmlns:xlink="http://www.w3.org/1999/xlink" viewBox="0 0 100 100"><defs><style>.cls-1{fill:url(#linear-gradient);}.cls-2{fill:#fff;}</style><linearGradient id="linear-gradient" x1="3.48" y1="71.35" x2="94.38" y2="29.63" gradientUnits="userSpaceOnUse"><stop offset="0.02" stop-color="#03e2b7"/><stop offset="0.98" stop-color="#00e261"/></linearGradient></defs><g id="Layer_2" data-name="Layer 2"><g id="Layer_1-2" data-name="Layer 1"><circle class="cls-1" cx="50" cy="50" r="50"/><path class="cls-2" d="M64.85,43.5a14.22,14.22,0,0,1-2.25,7.55L50.43,70.66H42.07L50.23,57.8a14.44,14.44,0,0,1-5.56-1,14.25,14.25,0,0,1-9.52-13.23c0-7.85,6.66-14.22,14.82-14.22S64.85,35.71,64.85,43.5Zm-7.15.06A7.7,7.7,0,1,0,50,51,7.58,7.58,0,0,0,57.7,43.56Z"/></g></g></svg>