<svg xmlns="http://www.w3.org/2000/svg" xmlns:xlink="http://www.w3.org/1999/xlink" viewBox="0 0 100 100"><defs><style>.cls-1{fill:url(#linear-gradient);}.cls-2{fill:#fff;}</style><linearGradient id="linear-gradient" x1="3.48" y1="71.35" x2="94.38" y2="29.63" gradientUnits="userSpaceOnUse"><stop offset="0.02" stop-color="#ff8b00"/><stop offset="1" stop-color="#edd600"/></linearGradient></defs><g id="Layer_2" data-name="Layer 2"><g id="Layer_1-2" data-name="Layer 1"><circle class="cls-1" cx="50" cy="50" r="50"/><path class="cls-2" d="M35,58.68a11.67,11.67,0,0,1,5.88-10.32A10.49,10.49,0,0,1,37,40.14C37,33.07,43.25,29,50,29s13,4.09,13,11a10.72,10.72,0,0,1-3.84,8.28,11.43,11.43,0,0,1,5.91,10.26C65.05,67,57.73,71,50,71S35,66.9,35,58.68Zm22.84-.75c0-4.44-3.38-6.92-7.85-6.92s-7.87,2.48-7.87,6.86c0,4.67,3.6,6.84,7.87,6.84S57.79,62.54,57.79,57.93ZM56,40.68c0-3.54-2.54-5.56-5.91-5.56-3.21,0-5.92,1.79-5.92,5.45,0,3.43,2.31,5.65,5.92,5.65C53.55,46.22,56,44.23,56,40.68Z"/></g></g></svg>