<svg xmlns="http://www.w3.org/2000/svg" xmlns:xlink="http://www.w3.org/1999/xlink" viewBox="0 0 100 100"><defs><style>.cls-1{fill:url(#linear-gradient);}.cls-2{fill:#fff;}</style><linearGradient id="linear-gradient" x1="3.48" y1="71.35" x2="94.38" y2="29.63" gradientUnits="userSpaceOnUse"><stop offset="0.02" stop-color="#ff3c00"/><stop offset="1" stop-color="#e59e00"/></linearGradient></defs><g id="Layer_2" data-name="Layer 2"><g id="Layer_1-2" data-name="Layer 1"><circle class="cls-1" cx="50" cy="50" r="50"/><path class="cls-2" d="M64.85,56.44c0,7.85-6.66,14.22-14.82,14.22S35.15,64.29,35.15,56.5A14.22,14.22,0,0,1,37.4,49L49.57,29.34h8.36L49.77,42.2a14.49,14.49,0,0,1,5.57,1A14.24,14.24,0,0,1,64.85,56.44Zm-7.15,0A7.7,7.7,0,1,0,50,63.89,7.59,7.59,0,0,0,57.7,56.44Z"/></g></g></svg>