<svg xmlns="http://www.w3.org/2000/svg" xmlns:xlink="http://www.w3.org/1999/xlink" viewBox="0 0 895.28 895.28"><defs><style>.cls-1{fill:url(#linear-gradient);}.cls-2{fill:#fff;}</style><linearGradient id="linear-gradient" x1="173.84" y1="786.24" x2="727.58" y2="101.45" gradientUnits="userSpaceOnUse"><stop offset="0" stop-color="#d366d1"/><stop offset="0.99" stop-color="#5f75d6"/></linearGradient></defs><g id="Layer_2" data-name="Layer 2"><g id="Layer_1-2" data-name="Layer 1"><circle class="cls-1" cx="447.64" cy="447.64" r="447.64"/><path class="cls-2" d="M531.84,344.89l-12.38-12.37a12.41,12.41,0,0,0-17.54,0L422.43,412l-35.75-35.75a12.4,12.4,0,0,0-17.53,0l-12.37,12.38a12.36,12.36,0,0,0,0,17.52l56.88,56.9a12.38,12.38,0,0,0,17.52,0L531.84,362.43A12.45,12.45,0,0,0,531.84,344.89ZM686,388.64a237.74,237.74,0,0,1-83.44,181.13h0c-62.08,57.64-105.19,119.76-129.88,160.55a29.27,29.27,0,0,1-50,0c-24.7-40.79-67.8-102.91-129.89-160.55h0A237.77,237.77,0,0,1,209.3,388.64C209.3,257,316,150.3,447.64,150.3S686,257,686,388.64Zm-103.58-.79A134.76,134.76,0,1,0,447.64,522.61,134.75,134.75,0,0,0,582.4,387.85Zm-50.56-43-12.38-12.37a12.41,12.41,0,0,0-17.54,0L422.43,412l-35.75-35.75a12.4,12.4,0,0,0-17.53,0l-12.37,12.38a12.36,12.36,0,0,0,0,17.52l56.88,56.9a12.38,12.38,0,0,0,17.52,0L531.84,362.43A12.45,12.45,0,0,0,531.84,344.89Z"/></g></g></svg>