<svg xmlns="http://www.w3.org/2000/svg" viewBox="0 0 192 192"><defs><style>.cls-1{fill:#f2f2f2;}.cls-2{fill:#443937;}</style></defs><g id="Layer_2" data-name="Layer 2"><g id="Layer_1-2" data-name="Layer 1"><circle class="cls-1" cx="96" cy="96" r="96"/><path class="cls-2" d="M54.41,89.71H87.3a2.41,2.41,0,0,0,2.41-2.41V54.41A2.41,2.41,0,0,0,87.3,52H54.41A2.41,2.41,0,0,0,52,54.41V87.3A2.41,2.41,0,0,0,54.41,89.71ZM64.57,64.57H77.14V77.14H64.57Zm37.72-10.16V87.3a2.41,2.41,0,0,0,2.41,2.41h32.89A2.41,2.41,0,0,0,140,87.3V54.41A2.41,2.41,0,0,0,137.59,52H104.7A2.41,2.41,0,0,0,102.29,54.41Zm25.14,22.73H114.86V64.57h12.57ZM54.41,140H87.3a2.41,2.41,0,0,0,2.41-2.41V104.7a2.41,2.41,0,0,0-2.41-2.41H54.41A2.41,2.41,0,0,0,52,104.7v32.89A2.41,2.41,0,0,0,54.41,140Zm10.16-25.14H77.14v12.57H64.57Zm69.14-12.57h3.88A2.41,2.41,0,0,1,140,104.7v22.73H121.14v-6.29h-6.28V140H104.7a2.41,2.41,0,0,1-2.41-2.41V104.7a2.41,2.41,0,0,1,2.41-2.41h16.44v6.28h12.57Zm0,31.42H140v3.88a2.41,2.41,0,0,1-2.41,2.41h-3.88Zm-12.57,0h6.29V140h-6.29Z"/></g></g></svg>