<svg xmlns="http://www.w3.org/2000/svg" xmlns:xlink="http://www.w3.org/1999/xlink" viewBox="0 0 100 90"><defs><style>.cls-1{fill:url(#linear-gradient);}.cls-2{fill:url(#linear-gradient-2);}.cls-3{fill:#f1b200;}.cls-4{fill:url(#linear-gradient-3);}.cls-5{fill:url(#linear-gradient-4);}.cls-6{fill:#fff;}.cls-7{fill:#010101;isolation:isolate;opacity:0.1;}</style><linearGradient id="linear-gradient" x1="-8578.45" y1="-346.37" x2="-8627.97" y2="-417.81" gradientTransform="translate(-8563.79 -326.88) rotate(180)" gradientUnits="userSpaceOnUse"><stop offset="0" stop-color="#feeb17"/><stop offset="1" stop-color="#f59d1d"/></linearGradient><linearGradient id="linear-gradient-2" x1="-41.51" y1="193.15" x2="86.51" y2="101.41" gradientTransform="matrix(1, 0, 0, -1, 0, 186.41)" xlink:href="#linear-gradient"/><linearGradient id="linear-gradient-3" x1="100.86" y1="3680.09" x2="74.91" y2="3642.63" gradientTransform="translate(0 -3598.15)" gradientUnits="userSpaceOnUse"><stop offset="0" stop-color="#859c27"/><stop offset="1" stop-color="#b9cd0f"/></linearGradient><linearGradient id="linear-gradient-4" x1="95.12" y1="112.51" x2="58.49" y2="166.94" gradientTransform="matrix(1, 0, 0, -1, 0, 186.41)" xlink:href="#linear-gradient-3"/></defs><g id="Layer_2" data-name="Layer 2"><g id="Layer_1-2" data-name="Layer 1"><g id="Layer_2-2" data-name="Layer 2"><g id="Layer_1-2-2" data-name="Layer 1-2"><path class="cls-1" d="M6,62.35H8.13a6,6,0,0,0-6,5.95v2.18a6,6,0,0,0,6,6h5.59A4.74,4.74,0,0,0,9,81.19v4.07A4.74,4.74,0,0,0,13.72,90H42a21,21,0,0,0,12.66-4.2,12.74,12.74,0,0,1,7.58-2.44H76.36L86.88,48.24H70.31A9.66,9.66,0,0,1,61,41.06L50.34,1.4A1.88,1.88,0,0,0,48.53,0a8.81,8.81,0,0,0-8.77,8.81v19.8a5.49,5.49,0,0,1-5.49,5.49H8.13a6,6,0,0,0-6,6h0v2.23a6,6,0,0,0,5.92,6H6A6,6,0,0,0,0,54.22v2.19A6,6,0,0,0,6,62.35Z"/><path class="cls-2" d="M6,62.35H8.13a6,6,0,0,0-6,5.95v2.18a6,6,0,0,0,6,6h5.59A4.74,4.74,0,0,0,9,81.19v4.07A4.74,4.74,0,0,0,13.72,90h3.39a4.4,4.4,0,0,1-.06-.73V49.51A11.34,11.34,0,0,1,28.38,38.16h7.51A11.89,11.89,0,0,0,47.8,26.28v0h0V12.81a8.76,8.76,0,0,1,3.67-7.16L50.39,1.4A1.89,1.89,0,0,0,48.53,0a8.81,8.81,0,0,0-8.77,8.81v19.8a5.49,5.49,0,0,1-5.49,5.49H8.13a6,6,0,0,0-6,6h0v2.23a6,6,0,0,0,5.92,6H6A6,6,0,0,0,0,54.22v2.19A6,6,0,0,0,6,62.35Z"/><path class="cls-3" d="M.77,51.27a6,6,0,0,1,5.18-3H20.32a1.51,1.51,0,0,1,0,3Zm21.06,12.6a1.51,1.51,0,0,0-1.49-1.52H8.13a5.94,5.94,0,0,0-5.18,3H20.32a1.51,1.51,0,0,0,1.5-1.51h0Zm0,14.11a1.52,1.52,0,0,0-1.51-1.51H13.74a4.74,4.74,0,0,0-4.39,3h11A1.51,1.51,0,0,0,21.82,78Z"/><path class="cls-4" d="M98.32,42.7H78a1.63,1.63,0,0,0-1.64,1.62h0v39H98.3a1.63,1.63,0,0,0,1.63-1.63h0V44.31A1.63,1.63,0,0,0,98.3,42.7Z"/><path class="cls-5" d="M84.45,83.36V56.05A9.35,9.35,0,0,1,93.8,46.7H100V44.31a1.63,1.63,0,0,0-1.63-1.61H78a1.63,1.63,0,0,0-1.64,1.62h0v39Z"/><path class="cls-6" d="M84,53.72a4.17,4.17,0,1,1,1.22,3A4.18,4.18,0,0,1,84,53.72Z"/><path class="cls-7" d="M86.88,49.72A4.19,4.19,0,0,0,84.17,55h0a4,4,0,0,0,.25.6,9.34,9.34,0,0,1,2.47-5.88Z"/></g></g></g></g></svg>