<svg xmlns="http://www.w3.org/2000/svg" xmlns:xlink="http://www.w3.org/1999/xlink" viewBox="0 0 100 90"><defs><style>.cls-1{fill:url(#linear-gradient);}.cls-2{fill:url(#linear-gradient-2);}.cls-3{fill:#f1b200;}.cls-4{fill:url(#linear-gradient-3);}.cls-5{fill:url(#linear-gradient-4);}.cls-6{fill:#fff;}.cls-7{fill:#010101;isolation:isolate;opacity:0.1;}</style><linearGradient id="linear-gradient" x1="-8508.22" y1="504.43" x2="-8557.73" y2="432.99" gradientTransform="translate(8593.53 -433.92)" gradientUnits="userSpaceOnUse"><stop offset="0" stop-color="#feeb17"/><stop offset="1" stop-color="#f59d1d"/></linearGradient><linearGradient id="linear-gradient-2" x1="-216.19" y1="1043.93" x2="-88.17" y2="952.2" gradientTransform="matrix(-1, 0, 0, 1, -74.7, -947.2)" xlink:href="#linear-gradient"/><linearGradient id="linear-gradient-3" x1="-73.83" y1="2812.53" x2="-99.79" y2="2775.07" gradientTransform="translate(-74.7 2820.6) rotate(180)" gradientUnits="userSpaceOnUse"><stop offset="0" stop-color="#a41916"/><stop offset="0.99" stop-color="#dd0c15"/></linearGradient><linearGradient id="linear-gradient-4" x1="-79.58" y1="963.31" x2="-116.2" y2="1017.73" gradientTransform="matrix(-1, 0, 0, 1, -74.7, -947.2)" xlink:href="#linear-gradient-3"/></defs><g id="Layer_2" data-name="Layer 2"><g id="Layer_1-2" data-name="Layer 1"><g id="Layer_2-2" data-name="Layer 2"><g id="Layer_1-2-2" data-name="Layer 1-2"><path class="cls-1" d="M94,27.64H91.83a6,6,0,0,0,6-5.95v-2.2a6,6,0,0,0-6-5.94H86.24A4.74,4.74,0,0,0,91,8.81V4.74A4.74,4.74,0,0,0,86.24,0H58A21.08,21.08,0,0,0,45.36,4.2a12.8,12.8,0,0,1-7.6,2.44H23.64L13.11,41.76H29.68A9.68,9.68,0,0,1,39,48.94L49.65,88.6A1.88,1.88,0,0,0,51.46,90a8.8,8.8,0,0,0,8.8-8.81V61.39a5.47,5.47,0,0,1,5.47-5.49H91.86a6,6,0,0,0,6-6V47.71a6,6,0,0,0-5.91-6h2.15a6,6,0,0,0,6-5.92v-2.2a6,6,0,0,0-6-6Z"/><path class="cls-2" d="M94,27.64H91.83a6,6,0,0,0,6-5.95v-2.2a6,6,0,0,0-6-5.94H86.24A4.74,4.74,0,0,0,91,8.81V4.74A4.74,4.74,0,0,0,86.24,0H82.85a4.4,4.4,0,0,1,.06.73V40.49A11.35,11.35,0,0,1,71.57,51.84H64.08A11.89,11.89,0,0,0,52.19,63.7h0V77.19a8.81,8.81,0,0,1-3.69,7.16l1.1,4.25A1.9,1.9,0,0,0,51.46,90a8.8,8.8,0,0,0,8.8-8.81V61.39a5.47,5.47,0,0,1,5.47-5.49H91.86a6,6,0,0,0,6-6V47.71a6,6,0,0,0-5.91-6h2.15a6,6,0,0,0,6-5.92v-2.2a6,6,0,0,0-6-6Z"/><path class="cls-3" d="M99.21,38.73a6,6,0,0,1-5.19,3H79.65a1.51,1.51,0,0,1,0-3ZM78.15,26.13a1.53,1.53,0,0,0,1.5,1.51H91.84a5.94,5.94,0,0,0,5.17-3H79.65a1.53,1.53,0,0,0-1.5,1.51Zm0-14.11a1.49,1.49,0,0,0,1.47,1.53h6.62a4.72,4.72,0,0,0,4.38-3h-11a1.5,1.5,0,0,0-1.5,1.5h0Z"/><path class="cls-4" d="M1.68,47.32H22a1.63,1.63,0,0,0,1.63-1.63h0v-39H1.7A1.63,1.63,0,0,0,.07,8.28h0v37.4A1.63,1.63,0,0,0,1.7,47.32h0Z"/><path class="cls-5" d="M15.57,6.65V34A9.33,9.33,0,0,1,6.24,43.3H0v2.39a1.63,1.63,0,0,0,1.63,1.63H22a1.63,1.63,0,0,0,1.63-1.63h0v-39Z"/><path class="cls-6" d="M16,36.28a4.18,4.18,0,1,1-1.23-3A4.19,4.19,0,0,1,16,36.28Z"/><path class="cls-7" d="M13.11,40.28A4.19,4.19,0,0,0,15.83,35v0a5.09,5.09,0,0,0-.25-.6,9.3,9.3,0,0,1-2.46,5.89Z"/></g></g></g></g></svg>