<?xml version="1.0" encoding="utf-8"?>
<!-- Generator: Adobe Illustrator 25.2.3, SVG Export Plug-In . SVG Version: 6.00 Build 0)  -->
<svg version="1.1" id="Layer_1" xmlns="http://www.w3.org/2000/svg" xmlns:xlink="http://www.w3.org/1999/xlink" x="0px" y="0px"
	 viewBox="0 0 104.4 104.4" style="enable-background:new 0 0 104.4 104.4;" xml:space="preserve">
<style type="text/css">
	.st0{clip-path:url(#SVGID_3_);}
	.st1{clip-path:url(#SVGID_4_);}
	.st2{fill:#FFF0C0;}
	.st3{opacity:0.2;fill:#C97B00;enable-background:new    ;}
	.st4{fill:#DDAF89;}
	.st5{fill:#A28577;}
</style>
<g>
	<defs>
		<circle id="SVGID_1_" cx="52.2" cy="52.2" r="52.2"/>
	</defs>
	<defs>
		<rect id="SVGID_2_" width="104.4" height="104.4"/>
	</defs>
	<clipPath id="SVGID_3_">
		<use xlink:href="#SVGID_1_"  style="overflow:visible;"/>
	</clipPath>
	<clipPath id="SVGID_4_" class="st0">
		<use xlink:href="#SVGID_2_"  style="overflow:visible;"/>
	</clipPath>
	<g class="st1">
		<path class="st2" d="M94.7,52.6c0,15.1-5.8,27.4-18.9,34.2C68.4,90.7,60,96.3,51,96.3c-15.1,0-27.7-5.9-34.1-19.2
			c-3.7-7.6-9.6-15.5-9.6-24.6c0-10.4,5.2-20.6,12-27.4C28.1,16.4,37.2,8.8,51,8.8c10.9,0,19.9,5.2,28.5,10.5
			C90,25.9,94.7,39.3,94.7,52.6z"/>
		<path class="st3" d="M51,96.3c9.1,0,17.4-5.6,24.9-9.5c0.6-0.3,1.2-0.6,1.7-1C33.2,99.6,23,32.5,35.5,12.5
			c-6,3-11.2,7.6-16.2,12.6c-6.8,6.8-12,17-12,27.4c0,9.1,6,16.9,9.6,24.6C23.3,90.4,35.9,96.3,51,96.3z"/>
		<g>
			<path class="st4" d="M74.5,43.4c-0.7,0-1.3-0.5-1.4-1.3c-0.3-4.4,1.7-9.6,5.6-14.4c3.7-4.6,8.3-7.6,12.2-8.1
				c0.8-0.1,1.4,0.5,1.5,1.2c0.1,0.8-0.5,1.4-1.2,1.5c-3.1,0.4-7.1,3.1-10.3,7.1c-3.4,4.2-5.2,8.8-5,12.5c0.1,0.8-0.5,1.4-1.3,1.5
				C74.5,43.4,74.5,43.4,74.5,43.4z"/>
			<path class="st4" d="M79.2,30.6c-0.6,0-1.2-0.4-1.3-1c-0.4-0.8-3.6-4.1-7.1-5.2c-0.7-0.2-1.1-1-0.9-1.7c0.2-0.7,1-1.1,1.7-0.9
				c4.1,1.3,8.6,5.4,8.9,7.2c0.1,0.7-0.3,1.5-1.1,1.6C79.4,30.6,79.3,30.6,79.2,30.6z M77.9,29.6L77.9,29.6L77.9,29.6z M77.9,29.5
				C77.9,29.5,77.9,29.5,77.9,29.5C77.9,29.5,77.9,29.5,77.9,29.5z"/>
		</g>
		<g>
			<path class="st5" d="M41.3,65.2c-0.4,0-0.7-0.1-1-0.4c-2.1-2.1-5.4-10.2-3.2-15.6C38,47,38.3,42.9,38,38.7
				c-0.3-4.4-1.3-8-2.6-9.4c-0.5-0.6-0.5-1.4,0.1-1.9s1.4-0.5,1.9,0.1c2.4,2.7,3.1,8.6,3.3,11c0.4,4.7,0,9.2-1.1,11.8
				c-1.7,4.2,1.2,11.3,2.6,12.7c0.5,0.5,0.5,1.4,0,1.9C42,65.1,41.6,65.2,41.3,65.2z"/>
			<path class="st5" d="M38.4,51.1c-0.6,0-1.2-0.4-1.3-1c-1.8-6.4-6.1-8.3-9-9.5c-0.6-0.3-1.1-0.5-1.6-0.7c-0.7-0.4-0.9-1.2-0.5-1.9
				c0.4-0.7,1.2-0.9,1.9-0.5c0.3,0.2,0.8,0.4,1.3,0.6c2.9,1.3,8.4,3.6,10.5,11.3c0.2,0.7-0.2,1.5-1,1.7C38.6,51,38.5,51.1,38.4,51.1
				z"/>
			<path class="st5" d="M50.1,34.8C50.1,34.8,50.1,34.8,50.1,34.8c-0.8,0-1.4-0.6-1.4-1.4c0-0.8,0.6-1.4,1.4-1.4c0,0,0,0,0,0
				c2.9,0,5.3-1.3,7.9-2.7c2.6-1.4,5.2-2.8,8.4-2.9c0.8,0,1.4,0.5,1.4,1.3c0,0.8-0.5,1.4-1.3,1.4c-2.6,0.1-4.8,1.3-7.2,2.6
				C56.6,33.2,53.7,34.8,50.1,34.8z"/>
			<path class="st5" d="M60.2,31c-2.5,0-4.9-1.1-6.9-3.2c-3.1-3.2-4.6-8.1-4.5-9.6c0.1-0.8,0.7-1.3,1.5-1.3c0.8,0.1,1.3,0.7,1.3,1.5
				c0,0.7,1.1,4.9,3.9,7.6c1.5,1.5,3.2,2.3,5,2.2c0.7,0,1.4,0.6,1.4,1.3c0,0.8-0.6,1.4-1.3,1.4C60.3,31,60.2,31,60.2,31z"/>
			<path class="st5" d="M25.3,33.2c-0.2,0-0.5-0.1-0.7-0.2c-4.5-2.6-13.8-2.3-17-0.1c-0.6,0.4-1.5,0.3-1.9-0.3
				c-0.4-0.6-0.3-1.5,0.3-1.9c4-2.8,14.4-3.3,20-0.1c0.7,0.4,0.9,1.2,0.5,1.9C26.2,32.9,25.7,33.2,25.3,33.2z"/>
		</g>
		<g>
			<path class="st4" d="M41.3,24.4c-0.1,0-0.2,0-0.4-0.1c-0.7-0.2-1.2-1-0.9-1.7c0.5-1.7,0.1-3.2-1.1-4.8c-2.6-3.4-8.3-5.4-9.4-5.4
				c-0.8,0-1.4-0.6-1.4-1.4c0-0.8,0.6-1.4,1.4-1.4c1.9,0,8.4,2.3,11.6,6.5c1.7,2.2,2.2,4.7,1.5,7.2C42.4,24,41.9,24.4,41.3,24.4z"/>
			<path class="st4" d="M41.2,20.6c-0.2,0-0.3,0-0.5-0.1c-0.7-0.3-1.1-1.1-0.8-1.8c0.2-0.5,0.6-1,1.6-2.2c1.7-2,5.6-6.6,4.6-8.7
				c-0.3-0.7,0-1.5,0.7-1.8c0.7-0.3,1.5,0,1.8,0.7c1.7,3.7-2.5,8.7-5,11.7c-0.5,0.6-1,1.2-1.2,1.5C42.2,20.3,41.7,20.6,41.2,20.6z
				 M42.5,19.7C42.5,19.7,42.5,19.7,42.5,19.7C42.5,19.7,42.5,19.7,42.5,19.7z"/>
		</g>
		<path class="st5" d="M61.3,20.2c-0.4,0-0.7-0.1-1-0.4c-0.5-0.6-0.5-1.4,0.1-1.9l0.3-0.3c3.4-3.1,8.5-7.9,14.8-5.6
			c0.7,0.3,1.1,1,0.8,1.8c-0.3,0.7-1,1.1-1.8,0.8c-4.7-1.7-8.7,2-12,5l-0.3,0.3C62,20.1,61.6,20.2,61.3,20.2z"/>
		<path class="st5" d="M59.4,50.9c-0.1-0.4,0-0.7,0.2-1.1c0.4-0.6,1.3-0.8,1.9-0.4l0.4,0.3c3.9,2.5,9.8,6.2,9.1,12.9
			c-0.1,0.8-0.7,1.3-1.5,1.2c-0.8-0.1-1.3-0.7-1.2-1.5c0.5-5-4.2-7.9-7.9-10.3L60,51.7C59.7,51.5,59.5,51.2,59.4,50.9z"/>
		<g>
			<path class="st4" d="M6.8,68.1C6.8,68.1,6.7,68.1,6.8,68.1c-0.8,0-1.4-0.7-1.4-1.4c0.5-15.1,6.7-18.9,13.1-22.8
				c0.5-0.3,1-0.6,1.5-0.9c0.6-0.4,1.5-0.2,1.9,0.4c0.4,0.6,0.2,1.5-0.4,1.9c-0.5,0.3-1,0.6-1.5,0.9c-6.3,3.8-11.3,6.9-11.8,20.5
				C8.1,67.5,7.5,68.1,6.8,68.1z"/>
			<path class="st4" d="M18.5,65.1c-0.8,0-1.4-0.6-1.4-1.4c0-3.2-4.1-7.4-6.1-9.4c-0.4-0.4-0.8-0.8-1-1c-0.3-0.3-1.1-1.2-0.4-2.2
				c0.4-0.6,1.3-0.8,1.9-0.3c0.2,0.2,0.4,0.4,0.5,0.6c0.2,0.2,0.6,0.6,1,1c2.4,2.5,6.9,7,6.9,11.3C19.9,64.5,19.3,65.1,18.5,65.1z
				 M11.9,52.8C11.9,52.8,11.9,52.8,11.9,52.8C11.9,52.8,11.9,52.8,11.9,52.8z M11.9,52.8C11.9,52.8,11.9,52.8,11.9,52.8
				C11.9,52.8,11.9,52.8,11.9,52.8z M11.9,52.8C11.9,52.8,11.9,52.8,11.9,52.8C11.9,52.8,11.9,52.8,11.9,52.8z"/>
		</g>
		<g>
			<path class="st5" d="M17.1,88.2c-0.5,0-1-0.3-1.2-0.7C14.5,85,15.9,76.3,19.7,72c0.5-0.6,1.4-0.6,1.9-0.1
				c0.6,0.5,0.6,1.4,0.1,1.9c-1.4,1.5-2.6,4.1-3.2,7.1c-0.6,2.9-0.5,4.8-0.3,5.2c0.4,0.7,0.1,1.5-0.5,1.9
				C17.5,88.2,17.3,88.2,17.1,88.2z"/>
			<path class="st5" d="M44.4,80.4c-0.2,0-0.4,0-0.6-0.1c-4-1.9-6.2-4.5-8.1-6.9c-2.6-3.2-4.7-5.7-10.6-6.1
				c-0.8-0.1-1.3-0.7-1.3-1.5c0.1-0.8,0.7-1.3,1.5-1.3c7.1,0.5,9.8,3.8,12.5,7.1c1.8,2.2,3.7,4.5,7.2,6.1c0.7,0.3,1,1.1,0.7,1.8
				C45.4,80.1,44.9,80.4,44.4,80.4z"/>
			<path class="st5" d="M50,74.3c-0.4,0-0.8-0.2-1.1-0.5c-1.6-1.9-5.3-1-8.2-0.2c-1.3,0.4-2.5,0.7-3.5,0.7c-0.8,0-1.4-0.6-1.4-1.3
				c0-0.8,0.6-1.4,1.3-1.4c0.7,0,1.7-0.3,2.9-0.6c3.5-0.9,8.3-2.2,11,1.1c0.5,0.6,0.4,1.4-0.2,1.9C50.6,74.2,50.3,74.3,50,74.3z"/>
		</g>
		<g>
			<path class="st4" d="M32.8,98.6c-0.2,0-0.5-0.1-0.7-0.2c-0.7-0.4-0.9-1.2-0.5-1.9c2.3-4,2.5-8.3,0.6-12.8c-1.6-3.6-4.1-6-4.5-6.3
				c-0.6-0.5-0.7-1.3-0.3-1.9c0.5-0.6,1.3-0.7,1.9-0.3c1,0.8,3.7,3.6,5.3,7.4c2.3,5.2,2,10.4-0.7,15.2
				C33.7,98.3,33.2,98.6,32.8,98.6z"/>
			<path class="st4" d="M35.3,89c-0.4,0-0.7-0.1-1.1-0.2c-0.7-0.3-1.1-1.1-0.8-1.8c0.3-0.7,1-1.1,1.7-0.8c0.4,0.1,1.5-0.2,2.4-0.4
				c2.3-0.6,5.4-1.3,8.2-0.3c0.7,0.2,1.1,1,0.8,1.7c-0.2,0.7-1,1.1-1.7,0.8c-2.1-0.7-4.6-0.1-6.7,0.4C37,88.8,36.1,89,35.3,89z
				 M35.2,86.3C35.2,86.3,35.2,86.3,35.2,86.3C35.2,86.3,35.2,86.3,35.2,86.3z"/>
		</g>
		<g>
			<path class="st5" d="M52.5,87c-0.5,0-0.9-0.2-1.2-0.6c-0.4-0.6-0.2-1.5,0.4-1.9c1.6-1,3.8-1.3,6.3-1.7c2.8-0.4,6.4-0.9,10.2-2.6
				c0.7-0.3,1.5,0,1.8,0.7c0.3,0.7,0,1.5-0.7,1.8c-4.1,1.9-7.9,2.4-10.9,2.9c-2.3,0.3-4.1,0.6-5.3,1.3C53,86.9,52.8,87,52.5,87z"/>
			<path class="st5" d="M75.2,90c-2.2,0-4.9-0.8-8.1-2.4c-2.9-1.5-5.2-3.1-5.3-3.2c-0.6-0.4-0.8-1.3-0.3-1.9
				c0.4-0.6,1.3-0.8,1.9-0.3c2.3,1.7,9.2,5.8,13,4.9c0.7-0.2,1.5,0.3,1.7,1c0.2,0.7-0.3,1.5-1,1.7C76.5,90,75.8,90,75.2,90z"/>
		</g>
		<g>
			<path class="st4" d="M60.7,76.3c-0.3,0-0.5-0.1-0.8-0.2c-0.6-0.4-0.8-1.3-0.4-1.9c4.1-6.2,13.4-7.9,21.8-8.7
				c0.8-0.1,1.4,0.5,1.5,1.2c0.1,0.8-0.5,1.4-1.2,1.5c-7.8,0.8-16.3,2.3-19.8,7.5C61.6,76.1,61.1,76.3,60.7,76.3z"/>
			<path class="st4" d="M83.8,78.6c-1.3,0-2.6-0.2-3.9-0.6c-4.4-1.4-7.8-5-10.5-8.3c-0.5-0.6-0.4-1.5,0.2-1.9
				c0.6-0.5,1.5-0.4,1.9,0.2c2.5,3,5.5,6.3,9.2,7.5c3.8,1.2,8,0.1,12.8-3.5c0.6-0.5,1.5-0.3,1.9,0.3c0.5,0.6,0.3,1.5-0.3,1.9
				C91.1,77.1,87.3,78.6,83.8,78.6z"/>
		</g>
		<g>
			<path class="st5" d="M87.6,59.1c-0.1,0-0.2,0-0.3,0c-0.7-0.2-1.2-0.9-1-1.6c0.7-3.1,2.6-5.6,4.5-8.1c2.1-2.8,4.1-5.5,3.7-8.5
				c-0.1-0.8,0.4-1.4,1.2-1.5c0.7-0.1,1.4,0.4,1.5,1.2c0.6,4.1-1.9,7.4-4.3,10.5c-1.7,2.2-3.4,4.5-4,7
				C88.8,58.6,88.3,59.1,87.6,59.1z"/>
			<path class="st5" d="M90.6,53.3c-0.7,0-1.2-0.5-1.4-1.1c-0.2-0.3-0.8-1.2-1.4-1.9c-2.5-3.1-6.7-8.4-4.8-13.3
				c0.3-0.7,1.1-1.1,1.8-0.8c0.7,0.3,1.1,1.1,0.8,1.8c-1.3,3.5,2.3,8,4.4,10.7c1.3,1.6,1.9,2.4,2,3.3C92,52.6,91.4,53.3,90.6,53.3
				C90.6,53.3,90.6,53.3,90.6,53.3z M89.2,52C89.2,52,89.2,52,89.2,52C89.2,52,89.2,52,89.2,52z"/>
			<path class="st5" d="M88.2,67.6c-0.3,0-0.5-0.1-0.7-0.2c-0.6-0.4-0.8-1.3-0.4-1.9c1.2-1.8,8.6-6.5,9.9-7.2
				c0.7-0.4,1.5-0.2,1.9,0.5c0.4,0.7,0.2,1.5-0.5,1.9c-3.9,2.3-8.5,5.6-9,6.4C89.1,67.4,88.6,67.6,88.2,67.6z"/>
		</g>
		<path class="st4" d="M28.8,25.4c-0.1,0-0.1,0-0.2,0c-1.2-0.2-2.9-1-4.2-2c-1.8-1.4-2.9-3.1-3-4.9c-0.1-0.8,0.5-1.4,1.2-1.5
			c0.8-0.1,1.4,0.5,1.5,1.2c0.2,2.3,3.5,4.2,4.9,4.4c0.7,0.1,1.3,0.8,1.2,1.6C30.1,24.9,29.5,25.4,28.8,25.4z"/>
		<path class="st5" d="M24,57.6c-0.2,0-0.3,0-0.5-0.1c-0.7-0.3-1-1.1-0.8-1.8c0.5-1.3,3.8-4.5,5.7-5.1c0.7-0.2,1.5,0.2,1.7,0.9
			c0.2,0.7-0.2,1.5-0.9,1.7c-1,0.3-3.6,2.8-4,3.5C25,57.3,24.5,57.6,24,57.6z M25.2,56.8C25.2,56.8,25.2,56.8,25.2,56.8
			C25.2,56.8,25.2,56.8,25.2,56.8z"/>
		<path class="st4" d="M15.7,40.8c-0.4,0-0.7-0.1-1-0.4c-0.5-0.5-0.5-1.4,0-1.9c1.5-1.5,4.1-2,5.8-1.7c0.7,0.1,1.2,0.8,1.1,1.6
			c-0.1,0.7-0.9,1.2-1.6,1.1c-1-0.2-2.6,0.2-3.4,0.9C16.3,40.7,16,40.8,15.7,40.8z"/>
		<path class="st4" d="M50.6,42.3c-0.3-0.1-0.6-0.3-0.8-0.7c-0.3-0.7-0.1-1.5,0.6-1.8c1.9-1,4.5-0.7,6,0.1c0.7,0.3,0.9,1.2,0.6,1.8
			c-0.3,0.7-1.2,0.9-1.8,0.6c-0.9-0.4-2.5-0.6-3.5-0.1C51.3,42.4,50.9,42.4,50.6,42.3z"/>
		<path class="st4" d="M56.1,66.6c-0.3,0-0.6-0.1-0.9-0.3c-3.2-2.9-4.3-5.9-5.1-8.3c-0.9-2.5-1.5-4.4-4.1-5.7
			c-0.7-0.3-1-1.1-0.6-1.8c0.3-0.7,1.1-1,1.8-0.6c3.7,1.8,4.6,4.6,5.5,7.3c0.8,2.3,1.6,4.8,4.3,7.1c0.6,0.5,0.6,1.4,0.1,1.9
			C56.8,66.4,56.5,66.6,56.1,66.6z"/>
		<path class="st4" d="M53.8,59c-1.3,0-2.4-0.2-3.1-0.6c-0.7-0.4-0.9-1.2-0.6-1.9c0.4-0.7,1.2-0.9,1.9-0.6c0.4,0.2,2.3,0.4,4.8-0.1
			c0.7-0.2,1.5,0.3,1.6,1.1c0.2,0.7-0.3,1.5-1.1,1.6C56.1,58.9,54.9,59,53.8,59z"/>
		<path class="st4" d="M80.6,55.2c-0.1,0-0.1,0-0.2,0c-0.7-0.1-1.3-0.8-1.2-1.6c0.2-1.1-1.4-2.3-1.9-2.6c-0.6-0.1-1.1-0.6-1.1-1.3
			c0-0.8,0.6-1.4,1.3-1.4c0,0,0,0,0,0c1,0,2.3,1.1,3,1.8c1.1,1.2,1.5,2.5,1.4,3.8C81.8,54.7,81.3,55.2,80.6,55.2z M77.6,51.1
			C77.6,51.1,77.6,51.1,77.6,51.1C77.6,51.1,77.6,51.1,77.6,51.1z M77.3,51L77.3,51L77.3,51z"/>
		<path class="st4" d="M59.5,61c-0.4,0-0.7-0.1-1-0.4l-4.8-4.8c-0.5-0.5-0.5-1.4,0-1.9c0.5-0.5,1.4-0.5,1.9,0l4.8,4.8
			c0.5,0.5,0.5,1.4,0,1.9C60.2,60.9,59.8,61,59.5,61z"/>
	</g>
</g>
</svg>
